<svg width="56" height="56" viewBox="0 0 56 56" fill="none" xmlns="http://www.w3.org/2000/svg">
<path d="M13.8726 15.5908H42.1274C44.7929 15.5908 46.1364 16.811 46.1364 19.2929V36.707C46.1364 39.1681 44.7929 40.409 42.1274 40.409H13.8726C11.2071 40.409 9.86365 39.1681 9.86365 36.707V19.2929C9.86365 16.811 11.2071 15.5908 13.8726 15.5908ZM27.9893 33.3772L42.362 21.9401C42.8737 21.5265 43.2789 20.5751 42.6392 19.7272C42.0208 18.8792 40.8906 18.8585 40.1442 19.3756L27.9893 27.3588L15.8558 19.3756C15.1094 18.8585 13.9792 18.8792 13.3608 19.7272C12.7211 20.5751 13.1263 21.5265 13.6381 21.9401L27.9893 33.3772Z" fill="#2C2C32"/>
<rect x="1.5" y="1.5" width="53" height="53" rx="15.5" stroke="url(#paint0_linear_115_7)" stroke-width="3"/>
<defs>
<linearGradient id="paint0_linear_115_7" x1="0" y1="28" x2="56" y2="28" gradientUnits="userSpaceOnUse">
<stop stop-color="#F34B6D"/>
<stop offset="1" stop-color="#374091"/>
</linearGradient>
</defs>
</svg>
