<svg width="56" height="56" viewBox="0 0 56 56" fill="none" xmlns="http://www.w3.org/2000/svg">
<rect x="1.5" y="1.5" width="53" height="53" rx="15.5" stroke="white" stroke-width="3"/>
<path fill-rule="evenodd" clip-rule="evenodd" d="M28.4795 45.8239L28.4617 45.8271L28.3462 45.8841L28.3137 45.8906L28.2909 45.8841L28.1754 45.8271C28.1581 45.8217 28.1451 45.8244 28.1364 45.8353L28.1299 45.8515L28.1022 46.5476L28.1104 46.5801L28.1266 46.6012L28.2958 46.7216L28.3202 46.7281L28.3397 46.7216L28.5088 46.6012L28.5283 46.5752L28.5348 46.5476L28.5072 45.8532C28.5029 45.8358 28.4936 45.8261 28.4795 45.8239ZM28.9105 45.6401L28.8894 45.6434L28.5885 45.7946L28.5722 45.8109L28.5674 45.8288L28.5966 46.5281L28.6048 46.5476L28.6178 46.559L28.9447 46.7102C28.9653 46.7156 28.981 46.7113 28.9918 46.6972L28.9983 46.6744L28.943 45.6759C28.9376 45.6564 28.9268 45.6445 28.9105 45.6401ZM27.7477 45.6434C27.7406 45.639 27.732 45.6376 27.7238 45.6394C27.7156 45.6413 27.7085 45.6462 27.7038 45.6531L27.6941 45.6759L27.6388 46.6744C27.6398 46.6939 27.6491 46.707 27.6664 46.7135L27.6908 46.7102L28.0177 46.559L28.0339 46.546L28.0404 46.5281L28.0681 45.8288L28.0632 45.8093L28.047 45.793L27.7477 45.6434Z" fill="white"/>
<path fill-rule="evenodd" clip-rule="evenodd" d="M34.9179 43.9943C32.5761 43.9081 25.9393 42.9909 18.9887 36.0419C12.0397 29.0912 11.1241 22.4561 11.0363 20.1126C10.9062 16.5413 13.6415 13.0725 16.8014 11.7178C17.1819 11.5535 17.5986 11.491 18.0105 11.5363C18.4225 11.5816 18.8156 11.7333 19.1513 11.9764C21.7533 13.8726 23.5487 16.7414 25.0904 18.997C25.4296 19.4926 25.5747 20.0956 25.4979 20.6912C25.4211 21.2869 25.1279 21.8334 24.6741 22.2268L21.5013 24.5832C21.348 24.6939 21.2401 24.8565 21.1976 25.0407C21.1551 25.225 21.181 25.4184 21.2703 25.585C21.9891 26.8909 23.2674 28.8359 24.731 30.2995C26.1947 31.7632 28.2324 33.126 29.6293 33.9261C29.8045 34.0244 30.0106 34.0519 30.2054 34.0029C30.4002 33.9539 30.5688 33.8321 30.6766 33.6626L32.742 30.5191C33.1217 30.0147 33.6818 29.6768 34.3051 29.5761C34.9284 29.4755 35.5664 29.6199 36.0856 29.9792C38.3737 31.5631 41.0441 33.3276 42.9988 35.8304C43.2617 36.1686 43.4289 36.5711 43.4829 36.9959C43.537 37.4207 43.476 37.8523 43.3062 38.2454C41.945 41.4215 38.5006 44.126 34.9179 43.9943Z" fill="white"/>
</svg>
