<svg width="56" height="56" viewBox="0 0 56 56" fill="none" xmlns="http://www.w3.org/2000/svg">
<rect x="1.5" y="1.5" width="53" height="53" rx="15.5" stroke="url(#paint0_linear_115_6)" stroke-width="3"/>
<path fill-rule="evenodd" clip-rule="evenodd" d="M28.4796 45.8237L28.4617 45.8269L28.3462 45.8838L28.3137 45.8903L28.2909 45.8838L28.1754 45.8269C28.1581 45.8215 28.1451 45.8242 28.1364 45.835L28.1299 45.8513L28.1023 46.5473L28.1104 46.5799L28.1267 46.601L28.2958 46.7213L28.3202 46.7279L28.3397 46.7213L28.5088 46.601L28.5283 46.575L28.5348 46.5473L28.5072 45.8529C28.5029 45.8356 28.4937 45.8258 28.4796 45.8237ZM28.9105 45.6399L28.8894 45.6431L28.5885 45.7944L28.5723 45.8106L28.5674 45.8285L28.5966 46.5278L28.6048 46.5473L28.6178 46.5587L28.9447 46.71C28.9653 46.7154 28.981 46.711 28.9918 46.697L28.9983 46.6742L28.943 45.6757C28.9376 45.6561 28.9268 45.6442 28.9105 45.6399ZM27.7477 45.6431C27.7406 45.6388 27.732 45.6374 27.7238 45.6392C27.7156 45.641 27.7085 45.6459 27.7038 45.6529L27.6941 45.6757L27.6388 46.6742C27.6399 46.6937 27.6491 46.7067 27.6664 46.7132L27.6908 46.71L28.0177 46.5587L28.034 46.5457L28.0405 46.5278L28.0681 45.8285L28.0632 45.809L28.047 45.7928L27.7477 45.6431Z" fill="#2C2C32"/>
<path fill-rule="evenodd" clip-rule="evenodd" d="M34.9179 43.994C32.5761 43.9078 25.9393 42.9906 18.9887 36.0416C12.0397 29.091 11.1241 22.4558 11.0363 20.1124C10.9062 16.5411 13.6415 13.0723 16.8014 11.7176C17.1819 11.5533 17.5986 11.4907 18.0105 11.5361C18.4225 11.5814 18.8156 11.7331 19.1513 11.9762C21.7533 13.8724 23.5487 16.7411 25.0904 18.9968C25.4296 19.4923 25.5747 20.0954 25.4979 20.691C25.4211 21.2866 25.1279 21.8332 24.6741 22.2265L21.5013 24.583C21.348 24.6937 21.2401 24.8562 21.1976 25.0405C21.1551 25.2247 21.181 25.4181 21.2703 25.5847C21.9891 26.8906 23.2674 28.8356 24.731 30.2993C26.1947 31.7629 28.2324 33.1257 29.6293 33.9258C29.8045 34.0242 30.0106 34.0517 30.2054 34.0027C30.4002 33.9537 30.5688 33.8319 30.6766 33.6624L32.742 30.5188C33.1217 30.0144 33.6818 29.6765 34.3051 29.5759C34.9284 29.4752 35.5664 29.6197 36.0856 29.9789C38.3737 31.5629 41.0441 33.3274 42.9988 35.8302C43.2617 36.1683 43.4289 36.5708 43.4829 36.9956C43.537 37.4205 43.476 37.852 43.3062 38.2452C41.945 41.4213 38.5006 44.1258 34.9179 43.994Z" fill="#2C2C32"/>
<defs>
<linearGradient id="paint0_linear_115_6" x1="0" y1="28" x2="56" y2="28" gradientUnits="userSpaceOnUse">
<stop stop-color="#F34B6D"/>
<stop offset="1" stop-color="#374091"/>
</linearGradient>
</defs>
</svg>
