<svg width="63" height="80" viewBox="0 0 63 80" fill="none" xmlns="http://www.w3.org/2000/svg">
<path d="M9.67838 29.5916C9.42777 29.3548 9.13296 29.1696 8.8108 29.0468C8.48864 28.9239 8.14542 28.8656 7.80076 28.8754C7.45609 28.8851 7.11672 28.9627 6.80201 29.1036C6.48731 29.2445 6.20345 29.446 5.96663 29.6966C5.7298 29.9472 5.54466 30.242 5.42177 30.5642C5.29888 30.8864 5.24065 31.2296 5.2504 31.5742C5.26015 31.9189 5.33769 32.2583 5.4786 32.573C5.6195 32.8877 5.82102 33.1715 6.07163 33.4084L29.6966 55.7209C30.184 56.1816 30.8293 56.4384 31.5 56.4384C32.1707 56.4384 32.816 56.1816 33.3034 55.7209L56.931 33.4084C57.1871 33.1731 57.3939 32.8893 57.5394 32.5734C57.6849 32.2576 57.7662 31.916 57.7785 31.5684C57.7909 31.2209 57.734 30.8744 57.6113 30.549C57.4886 30.2236 57.3025 29.9258 57.0637 29.673C56.825 29.4202 56.5383 29.2173 56.2205 29.0761C55.9027 28.935 55.56 28.8584 55.2123 28.8508C54.8647 28.8433 54.5189 28.9049 54.1953 29.032C53.8716 29.1592 53.5764 29.3494 53.3269 29.5916L31.5 50.2031L9.67838 29.5916Z" fill="url(#paint0_linear_10_2)"/>
<path d="M9.67838 46.5916C9.42777 46.3548 9.13296 46.1696 8.8108 46.0468C8.48864 45.9239 8.14542 45.8656 7.80076 45.8754C7.45609 45.8851 7.11672 45.9627 6.80201 46.1036C6.48731 46.2445 6.20345 46.446 5.96663 46.6966C5.7298 46.9472 5.54466 47.242 5.42177 47.5642C5.29888 47.8864 5.24065 48.2296 5.2504 48.5742C5.26015 48.9189 5.33769 49.2583 5.4786 49.573C5.6195 49.8877 5.82102 50.1715 6.07163 50.4084L29.6966 72.7209C30.184 73.1816 30.8293 73.4384 31.5 73.4384C32.1707 73.4384 32.816 73.1816 33.3034 72.7209L56.931 50.4084C57.1871 50.1731 57.3939 49.8893 57.5394 49.5734C57.6849 49.2576 57.7662 48.916 57.7785 48.5684C57.7909 48.2209 57.734 47.8744 57.6113 47.549C57.4886 47.2236 57.3025 46.9258 57.0637 46.673C56.825 46.4202 56.5384 46.2173 56.2205 46.0761C55.9027 45.935 55.56 45.8584 55.2123 45.8508C54.8646 45.8433 54.5189 45.9049 54.1953 46.032C53.8716 46.1592 53.5764 46.3494 53.3269 46.5916L31.5 67.2031L9.67838 46.5916Z" fill="url(#paint1_linear_10_2)"/>
<defs>
<linearGradient id="paint0_linear_10_2" x1="5.24935" y1="42.6443" x2="57.7802" y2="42.6443" gradientUnits="userSpaceOnUse">
<stop stop-color="#F34B6D"/>
<stop offset="1" stop-color="#374091"/>
</linearGradient>
<linearGradient id="paint1_linear_10_2" x1="5.24935" y1="59.6443" x2="57.7802" y2="59.6443" gradientUnits="userSpaceOnUse">
<stop stop-color="#F34B6D"/>
<stop offset="1" stop-color="#374091"/>
</linearGradient>
</defs>
</svg>
