<?xml version="1.0" encoding="UTF-8"?>
<svg id="FAVICON_BLACK" data-name="FAVICON BLACK" xmlns="http://www.w3.org/2000/svg" viewBox="0 0 500 500">
  <path d="M313.64,283.67c-2.33,1.88-4.93,3.07-9.66,5.24-3.58,1.64-7.28,3.05-11.05,4.2-2.77.15-6.01-.12-9.37-1.35-12.85-4.69-21.06-21.09-16.71-33.42,1.47-4.16,4.18-7.31,6.44-9.38,2.37-1.8,6.05-4.18,10.71-5.89.61-.23,1.24-.44,1.89-.65.02,0,.04-.01.06-.01.86-.27,1.74-.5,2.65-.7,1.09-.25,2.22-.45,3.38-.59,2.53-.31,5.21-.35,8.03,0,10.95,1.34,18.53,5.65,21.91,12.46,5.42,10.89-1.33,24.48-8.28,30.09ZM357.92,204.34c-4.55-2.6-9.71-3.46-14.71-2.8.7.29,1.4.61,2.11.95,13,6.25,20.53,16.26,24.59,23.12-.08-8.76-4.5-17.01-11.99-21.27ZM376.8,151.87c-8.4-2.92-18.45-4.59-29.33-2.66-3.3.59-11.92,2.11-21.05,8.44-2.81-8.07-6.75-15.67-11.55-22.14-21.07-28.41-60.21-39.49-96.36-27.72-.57-1.46-1.31-2.93-2.25-4.37-5.57-8.55-14.46-10.65-18.26-11.55-4.47-1.06-9.27-1.32-16.36.28-3.27-12.28,3.26-25.28,15.41-29.83,57.97-21.68,122.93-3.83,157.97,43.4,10.34,13.94,17.64,29.77,21.78,46.15ZM311.55,80.12c-7.28-4.49-15.07-8.06-23.18-10.61-5.81-1.84-11.83-3.16-17.9-3.94-1.36-.18-2.62.79-2.8,2.16-.17,1.37.8,2.62,2.16,2.79,5.78.75,11.51,2.01,17.04,3.76,7.71,2.43,15.13,5.83,22.05,10.09.41.25.86.38,1.31.38.84,0,1.66-.43,2.13-1.19.73-1.18.36-2.72-.81-3.44ZM338.39,102.21c-1.44-2.28-3.12-4.41-4.99-6.34-2.09-2.17-4.44-4.11-6.98-5.75-1.16-.76-2.7-.43-3.46.73-.75,1.16-.42,2.71.74,3.46,2.22,1.44,4.27,3.13,6.11,5.03,1.63,1.69,3.09,3.56,4.35,5.54.48.75,1.29,1.16,2.12,1.16.46,0,.92-.12,1.33-.38,1.17-.74,1.52-2.29.78-3.45ZM117.63,119.07v-28.19c0-13.48,11.03-24.51,24.52-24.51,6.74,0,12.88,2.76,17.32,7.2s7.2,10.57,7.2,17.31v6.11c-1.15.46-2.35.94-3.59,1.46-2.45,1.02-4.98,2.08-7.63,3.25v-11.64c0-1.39-1.12-2.5-2.5-2.5s-2.5,1.11-2.5,2.5v13.93c-6.41,3.04-13.51,6.88-21.67,12.42-3.81,2.58-7.53,5.32-11.15,8.2v-5.54ZM287.21,326.56c-6.63-8.94-13.54-18.24-21.19-27.56-8.82-11.63-17.26-20.01-23.48-25.6-8.17-7.34-16.45-13.36-27.43-20.39-.66.93-1.38,1.8-2.15,2.63-5.21,5.54-11.24,7.19-17.63,8.93-.91.24-1.83.49-2.76.76-.07.02-7.46,2.17-21.78,8.43-14.26,6.23-26.01,15.17-34.92,26.57-4.9,6.27-9.08,13.67-12.09,21.42-4.02,10.36-5.99,21.28-5.87,32.47l-.25,65.59h-.03v2.48c0,13.49,11.03,24.52,24.52,24.52s24.52-11.03,24.52-24.52v-142.89c1.5.8,3,1.62,4.48,2.46,2.26,1.28,4.46,2.59,6.61,3.94,10.41,6.5,19.48,13.68,27.63,21.29,2.6,2.24,5.16,4.59,7.63,6.98,7.56,7.31,11.66,12.5,14.95,16.67,2.8,3.55,5.01,6.35,8.46,9.34,11.71,10.15,25.8,12.14,32.58,13.09,8.1,1.14,22.64,3.19,35.37-4.14-5.64-6.95-11.24-14.48-17.17-22.47ZM393.74,396.76c-12.81-.35-24.86-2.51-35.83-6.45-3.65-1.31-7.11-2.77-10.4-4.39-7.86,6.22-16.45,11-25.63,14.25-12.66,4.49-24.33,5.33-32.76,5.69,14.06,12.83,30.68,23.91,51.92,31.52,15.96,5.72,33.24,8.87,51.36,9.36.22,0,.45,0,.68,0,13.49,0,24.61-10.76,24.98-24.33.37-13.8-10.52-25.29-24.32-25.66ZM407.7,225.51c-1.81,4.91-8.94,21.38-26.15,26.16-.76.21-1.5.39-2.24.54-.55-4.14-1.53-8.58-3.12-13.16.36-.8.7-1.62,1.03-2.43l.13-.36c2.24-7.33,1.98-14.95-.34-21.75-2.55-7.49-7.62-13.99-14.63-17.99-9.99-5.7-22.04-5.37-31.94-.21-.72.37-1.43.77-2.12,1.2-2.32-.28-4.28-.36-5.76-.36h-.12c-2.6.01-5.07.21-7.42.56-.18-4.14.29-8.67,1.87-13.38,2.07-6.19,5.44-10.83,8.49-14.08.15-.16.31-.32.47-.48,1-.99,2.08-1.96,3.25-2.9.61-.49,1.24-.97,1.89-1.44,7.72-5.52,15.22-6.86,18.05-7.36,11.43-2.03,21.91.72,29.99,4.36h0c3.27,1.48,6.15,3.11,8.54,4.62.05.04.11.07.16.11,3.45,2.4,5.61,4.46,6.26,5.09,12.9,12.64,20.86,33.98,13.71,53.26ZM384.71,177.44c-1.35-1.44-2.79-2.76-4.29-3.95-1.54-1.22-3.15-2.3-4.83-3.24-5.02-2.81-10.67-4.33-16.35-4.4-1.41-.01-2.51,1.09-2.53,2.47s1.09,2.51,2.47,2.53c4.92.06,9.61,1.32,13.96,3.76,2.78,1.56,5.35,3.57,7.66,5.99h0c.09.09.18.18.26.27.49.52,1.16.78,1.82.78.62,0,1.23-.22,1.71-.67,1.01-.95,1.06-2.53.12-3.54ZM396.93,199.25c-.32-1.72-.8-3.38-1.44-4.96-.52-1.3-1.15-2.55-1.88-3.72-.73-1.17-2.27-1.53-3.44-.8s-1.54,2.27-.81,3.44c.58.92,1.08,1.92,1.5,2.95.51,1.27.9,2.62,1.16,4.01.22,1.2,1.27,2.04,2.45,2.04.15,0,.31-.02.47-.05,1.35-.25,2.25-1.56,1.99-2.91ZM348.02,371.1c-1.43,2.9-3.27,5.2-5.22,7.07-1.29,1.05-2.59,2.05-3.92,3-1.24.9-2.5,1.75-3.77,2.57-.02,0-.05.03-.07.04-5.12,3.26-10.52,5.91-16.17,7.91-9.45,3.35-18.48,4.47-25.78,4.94-.04.01-.08.01-.13.01-2.57.17-4.92.25-6.99.33-1.95.07-3.91.1-5.87.08-2.56,0-5.14-.08-7.69-.24-.05,0-.11,0-.16,0-6.85-.53-11.04-1.45-11.04-1.45-8.53-1.88-18.35-4.15-29.06-11.36-4.69-3.15-28.62-19.17-29.43-46.13-.22-7.54,1.35-14.12,3.35-19.36.46.43.93.87,1.39,1.32,7.18,6.94,10.92,11.69,14.23,15.88,2.94,3.72,5.48,6.94,9.5,10.42,4.98,4.32,10.26,7.35,15.32,9.49,8.64,3.69,16.63,4.81,21.39,5.48,3.84.54,8.97,1.26,14.74,1.26,8.27,0,17.88-1.48,26.93-7.11.87-.54,1.73-1.12,2.59-1.74.75-.54,1.48-1.1,2.19-1.69,8.2-5.52,11.84-11.26,19.87-10.59,1.83.15,3.63.61,5.34,1.34,3.31,1.39,6.24,3.74,8.28,6.64.29.41.57.83.82,1.27,5.18,8.88.29,18.75-.64,20.63ZM331.65,351.67c-1.02-.93-2.6-.87-3.54.14-.11.11-.21.23-.33.34-1.32,1.41-2.76,2.71-4.29,3.88-1.13.86-2.32,1.66-3.53,2.38-1.19.71-1.58,2.24-.88,3.43.47.79,1.3,1.22,2.16,1.22.43,0,.87-.11,1.27-.34,1.38-.82,2.73-1.74,4.01-2.72,1.48-1.13,2.9-2.37,4.22-3.7.36-.36.71-.72,1.05-1.09.93-1.02.87-2.6-.14-3.54ZM210.53,182.5h-.04c-.92,2.75-2.29,5.12-4.09,7.04-3.47,3.69-7.65,4.83-13.44,6.41-.93.25-1.89.51-2.86.79-.32.09-7.95,2.29-22.91,8.83-.17.08-.35.15-.52.24-15.42,6.82-28.17,16.59-37.89,29.04-.14.18-.28.36-.42.54h-.01c-3.75,2.6-7.23,5.25-10.47,7.95-.09.07-.17.14-.25.21-3.15,2.63-6.07,5.31-8.78,8.01-4.46,4.44-8.34,8.94-11.72,13.41-6.23,8.22-10.78,16.33-14.09,23.76-2.74-17.34.28-31.53,1.65-37.98.51-2.4,1.12-4.77,1.82-7.11h0c3.97-10.43,9.18-20.16,15.55-29.05,21.58-30.12,51.26-43.05,63.72-48.22.31-.12.61-.25.89-.36.09-.04.18-.07.26-.11.02-.01.03-.01.05-.02,7.29-2.81,14.95-5.21,22.93-7.17,9.42-2.32,18.82,3.95,20.98,14.01.72,3.36.55,6.71-.36,9.78ZM195.86,168.79c-.19-1.36-1.45-2.32-2.82-2.13-1.25.17-2.61.45-4.04.81-2.15.55-4.4,1.28-6.7,2.18-1.28.51-1.92,1.96-1.41,3.24.39.99,1.33,1.59,2.33,1.59.3,0,.61-.06.91-.17,2.07-.82,4.19-1.51,6.1-2,1.25-.31,2.43-.55,3.49-.7,1.37-.19,2.33-1.45,2.14-2.82ZM211.34,117.67c0,.5-.02,1.01-.06,1.5-.36,4.45-2.21,8.59-5.13,11.68-.13.15-.27.28-.41.41-3.34,3.17-7.35,4.27-12.78,5.75-.93.26-1.89.52-2.86.79-.14.03-1.62.47-4.45,1.46-.06.02-.12.04-.18.06-5.13,1.71-10.05,3.65-14.74,5.79-1.13.48-2.31.99-3.54,1.53-.17.08-.35.15-.52.24-15.42,6.81-28.16,16.58-37.89,29.03-.07.09-.14.18-.21.27-11.34,7.93-23.42,18.67-33.82,33.17-4.45,6.22-8.38,12.81-11.75,19.75-2.66-17.21.33-31.28,1.69-37.71,4.38-20.65,15.95-39.51,32.94-55.05.53-.48,1.06-.96,1.6-1.43l.21-.18c4.63-3.88,9.43-7.51,14.39-10.87,6.14-4.16,11.58-7.3,16.62-9.86,1.71-.87,3.37-1.67,5-2.42,3.85-1.79,7.5-3.32,11.1-4.82.04-.02.08-.03.12-.05.56-.23,1.11-.46,1.64-.68,5.29-1.99,10.76-3.77,16.41-5.32.31-.06.62-.12.92-.17,4.96-.89,7.89-.48,10.29.09,2.98.7,9.19,2.17,12.79,7.7.45.69.82,1.38,1.13,2.08h.01c.83,1.86,1.24,3.73,1.4,5.44.02.17.03.34.04.51.02.46.04.89.04,1.31ZM196.95,109.95c-.05-.35-.17-.68-.34-.96-.5-.83-1.46-1.32-2.48-1.18-.02,0-.04.01-.06.01-1.23.18-2.57.45-3.98.8-2.14.55-4.4,1.28-6.7,2.19-1.28.5-1.92,1.95-1.41,3.24.39.98,1.33,1.58,2.33,1.58.3,0,.61-.05.91-.17,2.08-.82,4.19-1.5,6.1-1.99,1.25-.32,2.43-.56,3.49-.7,1.37-.19,2.33-1.46,2.14-2.82ZM209.59,244.61c-.58,1.28-1.3,2.49-2.14,3.6-.33.44-.68.86-1.05,1.27-.22.23-.44.45-.66.66-.22.21-.45.41-.68.61-.46.38-.93.74-1.41,1.06-.24.17-.49.32-.74.47s-.5.3-.76.43c-.11.06-.21.11-.32.16-.18.1-.36.19-.55.27-.5.24-1.03.47-1.57.68-.02.01-.04.02-.06.02-.57.21-1.15.42-1.75.62-.31.1-.61.19-.92.29-.62.18-1.26.37-1.92.56-.68.18-1.38.37-2.1.57-.93.26-1.89.52-2.86.8-.03,0-.14.04-.33.1-.08.02-.17.04-.27.08-.08.02-.17.05-.28.08-.09.03-.18.06-.29.09-.34.12-.77.25-1.27.42-.15.05-.31.1-.48.16-.84.28-1.85.64-3.04,1.07-.15.05-.3.11-.46.16-.02.01-.04.02-.07.03-2.15.79-4.83,1.81-8.06,3.11-.28.11-.55.22-.81.33-.64.25-1.21.49-1.7.7-.15.06-.3.12-.43.18-.23.09-.43.18-.6.25-.06.03-.11.05-.16.07-.12.05-.22.09-.29.12-.5.22-1.02.43-1.54.66-.22.09-.44.19-.65.28-.71.3-1.44.61-2.18.94-15.65,6.84-28.57,16.69-38.41,29.28-.51.66-1.02,1.33-1.52,2.01-.02.02-.04.05-.05.07-.51.69-1,1.38-1.49,2.09-.49.72-.98,1.44-1.45,2.18-.36.55-.72,1.12-1.07,1.69-.06.08-.11.17-.16.26-.19.3-.38.61-.55.92-.34.54-.66,1.09-.97,1.65-.36.62-.71,1.25-1.05,1.89-.16.28-.31.56-.45.84-.26.47-.5.95-.74,1.44-.15.27-.29.54-.42.82-.35.7-.69,1.4-1.01,2.11h-.01c-.07.16-.14.31-.21.47-.8,1.73-1.55,3.49-2.24,5.27-.38.97-.74,1.95-1.08,2.94-.25.69-.49,1.39-.71,2.09-.25.75-.48,1.5-.7,2.25-.06.2-.12.39-.17.59-.2.67-.39,1.34-.57,2.02-.03.1-.05.19-.08.29-.22.84-.43,1.68-.63,2.52,0,.01-.01.01-.01.02-.2.86-.39,1.72-.56,2.58-.18.83-.34,1.66-.48,2.5-.02.09-.04.19-.05.28-.12.67-.23,1.35-.33,2.02-.03.14-.05.28-.07.42-.05.37-.11.74-.16,1.11-.08.57-.15,1.15-.22,1.73-.17,1.41-.3,2.83-.4,4.25-.05.6-.08,1.19-.12,1.79-.03.57-.05,1.15-.08,1.72v.15c-.02.58-.04,1.16-.05,1.75,0,.91-.02,1.82,0,2.73l-.02,5.59-.14,37.61c-7.14-6.77-14.39-15.95-19.62-28.08-5.47-12.69-7.14-24.76-7.19-34.87v-.17c.22-10.44,1.86-20.61,4.92-30.33h0c.07-.24.14-.45.21-.68,2.84-8.85,7.64-19.72,15.77-30.94,1.81-2.5,3.79-5.02,5.96-7.54,2.18-2.54,4.55-5.08,7.12-7.6h0c.56-.55,1.13-1.1,1.71-1.65.07-.07.13-.13.2-.19.87-.82,1.76-1.63,2.67-2.44h.01c4.2-3.74,8.87-7.4,14.07-10.93.03-.01.05-.03.08-.05,0,0,0-.01.02-.01,0-.01,0-.01,0-.01.02-.01.03-.02.05-.03,3.79-2.4,7.66-4.67,11.61-6.82.63-.33,1.26-.64,1.9-.95l-.02-.05c.96-.5,1.92-1,2.88-1.49,1.27-.64,2.56-1.27,3.84-1.89,1.03-.49,2.06-.98,3.1-1.45.08-.03.15-.07.23-.1,1.03-.48,2.07-.94,3.11-1.39.31-.13.61-.27.93-.4.31-.13.62-.27.93-.39.04-.02.07-.03.11-.05.25-.11.49-.21.74-.31.39-.17.79-.33,1.19-.5.2-.08.39-.16.57-.23.19-.08.38-.15.55-.22.18-.08.36-.14.52-.21.41-.16.82-.33,1.24-.48.38-.16.76-.3,1.14-.44,1.87-.71,3.77-1.37,5.69-2.01,4.83-1.61,9.81-3.04,14.91-4.3,9.42-2.32,18.82,3.96,20.98,14.02.93,4.32.38,8.64-1.3,12.34ZM196.13,227.92c-.19-1.37-1.44-2.33-2.82-2.14-1.24.18-2.6.45-4.04.81-2.14.55-4.4,1.28-6.7,2.18-1.28.51-1.91,1.96-1.41,3.25.08.21.19.4.32.57h.01c.39.54.99.89,1.65.98.11.02.23.03.35.03.3,0,.61-.05.91-.17,2.08-.82,4.19-1.51,6.11-1.99,1.25-.32,2.42-.56,3.49-.7,1.36-.19,2.32-1.45,2.13-2.82ZM350.17,299.57c-4.32,2.95-19.67,12.24-36.47,6.16-4.54-1.65-8.2-4.05-11.04-6.49,1.72-.67,3.41-1.38,5.08-2.15,5.03-2.31,8.35-3.83,11.55-6.42,3.84-3.1,7.23-7.43,9.65-12.37,4.32-8.81,5.6-19.56,1.04-28.73-3-6.01-9.49-13.43-23.59-16.49-1.66-.36-3.42-.66-5.29-.89-5.47-.67-10.53-.2-15.03.89,2.03-6.2,6.03-13.92,13.96-19.7,5.43-3.95,11.03-5.78,15.47-6.62.09-.02.18-.04.27-.05.2-.04.41-.07.62-.09.71-.12,1.45-.21,2.19-.28,1.26-.12,2.56-.19,3.89-.19h.08c1.13,0,2.92.06,5.18.37h.02c.84.11,1.74.26,2.7.45,3.2.63,7,1.73,10.97,3.63,14.84,7.13,21.38,20.45,23.53,24.83.54,1.1,1.04,2.21,1.49,3.3.13.28.24.57.34.85.03.04.04.08.05.11,1.53,3.86,2.54,7.64,3.17,11.21.12.67.23,1.33.32,1.98.14.95.25,1.88.33,2.8,0,0,0,.02,0,.03v.02c.58,16.09-5.81,33.85-20.48,43.84ZM340.51,217.01c-2.1-1.62-4.4-2.94-6.85-3.93-2.4-.96-4.9-1.59-7.45-1.88-.18-.03-.36-.05-.54-.07h0c-.46-.04-.93-.08-1.39-.1-1.37-.07-2.56.99-2.62,2.37-.05.97.46,1.83,1.24,2.29.01,0,.02.01.03.01.05.03.1.06.15.08.29.14.61.22.95.24,2.68.13,5.29.71,7.77,1.7,2.02.82,3.93,1.91,5.66,3.25.46.35,1,.52,1.53.52.75,0,1.49-.33,1.98-.97.85-1.1.64-2.67-.45-3.51ZM355.45,232.2c-.83-1.53-1.8-2.96-2.9-4.27-.9-1.07-1.89-2.07-2.94-2.95-1.05-.89-2.63-.76-3.52.29-.89,1.06-.76,2.64.3,3.53.83.7,1.61,1.49,2.33,2.34.88,1.05,1.67,2.21,2.34,3.45.46.83,1.32,1.3,2.2,1.3.41,0,.82-.1,1.2-.3,1.21-.66,1.66-2.18.99-3.39Z"/>
</svg>