<?xml version="1.0" encoding="UTF-8"?>
<svg id="LONG_BLACK" data-name="LONG BLACK" xmlns="http://www.w3.org/2000/svg" viewBox="0 0 1210 500">
  <path d="M219.8,261.65c-1.6,1.29-3.38,2.1-6.61,3.59-2.45,1.12-4.98,2.09-7.57,2.88-1.9.1-4.12-.08-6.42-.92-8.8-3.21-14.42-14.44-11.44-22.88,1.01-2.85,2.86-5.01,4.41-6.42,1.62-1.23,4.14-2.86,7.33-4.03.42-.16.85-.3,1.29-.45.01,0,.03,0,.04,0,.59-.18,1.19-.34,1.81-.48.75-.17,1.52-.31,2.31-.4,1.73-.21,3.57-.24,5.5,0,7.5.92,12.69,3.87,15,8.53,3.71,7.46-.91,16.76-5.67,20.6ZM250.12,207.33c-3.12-1.78-6.65-2.37-10.07-1.92.48.2.96.42,1.45.65,8.9,4.28,14.06,11.13,16.84,15.83-.05-6-3.08-11.65-8.21-14.56ZM263.04,171.4c-5.75-2-12.63-3.14-20.08-1.82-2.26.4-8.16,1.44-14.41,5.78-1.92-5.53-4.62-10.73-7.91-15.16-14.43-19.45-41.23-27.04-65.98-18.98-.39-1-.9-2.01-1.54-2.99-3.81-5.85-9.9-7.29-12.5-7.91-3.06-.73-6.35-.9-11.2.19-2.24-8.41,2.23-17.31,10.55-20.43,39.69-14.85,84.18-2.62,108.17,29.72,7.08,9.55,12.08,20.38,14.91,31.6ZM218.36,122.27c-4.99-3.07-10.32-5.52-15.87-7.27-3.98-1.26-8.1-2.16-12.26-2.7-.93-.12-1.79.54-1.92,1.48-.12.94.55,1.79,1.48,1.91,3.96.51,7.88,1.38,11.67,2.57,5.28,1.66,10.36,3.99,15.1,6.91.28.17.59.26.9.26.58,0,1.14-.29,1.46-.81.5-.81.25-1.86-.55-2.36ZM236.74,137.4c-.99-1.56-2.14-3.02-3.42-4.34-1.43-1.49-3.04-2.81-4.78-3.94-.79-.52-1.85-.29-2.37.5-.51.79-.29,1.86.51,2.37,1.52.99,2.92,2.14,4.18,3.44,1.12,1.16,2.12,2.44,2.98,3.79.33.51.88.79,1.45.79.31,0,.63-.08.91-.26.8-.51,1.04-1.57.53-2.36ZM85.58,148.94v-19.3c0-9.23,7.55-16.78,16.79-16.78,4.62,0,8.82,1.89,11.86,4.93,3.04,3.04,4.93,7.24,4.93,11.85v4.18c-.79.31-1.61.64-2.46,1-1.68.7-3.41,1.42-5.22,2.23v-7.97c0-.95-.77-1.71-1.71-1.71s-1.71.76-1.71,1.71v9.54c-4.39,2.08-9.25,4.71-14.84,8.5-2.61,1.77-5.16,3.64-7.63,5.61v-3.79ZM201.7,291.02c-4.54-6.12-9.27-12.49-14.51-18.87-6.04-7.96-11.82-13.7-16.08-17.53-5.59-5.03-11.26-9.15-18.78-13.96-.45.64-.95,1.23-1.47,1.8-3.57,3.79-7.7,4.92-12.07,6.11-.62.16-1.25.34-1.89.52-.05.01-5.11,1.49-14.91,5.77-9.76,4.27-17.81,10.39-23.91,18.19-3.36,4.29-6.22,9.36-8.28,14.67-2.75,7.09-4.1,14.57-4.02,22.23l-.17,44.91h-.02v1.7c0,9.24,7.55,16.79,16.79,16.79s16.79-7.55,16.79-16.79v-97.84c1.03.55,2.05,1.11,3.07,1.68,1.55.88,3.05,1.77,4.53,2.7,7.13,4.45,13.34,9.37,18.92,14.58,1.78,1.53,3.53,3.14,5.22,4.78,5.18,5.01,7.98,8.56,10.24,11.41,1.92,2.43,3.43,4.35,5.79,6.4,8.02,6.95,17.67,8.31,22.31,8.96,5.55.78,15.5,2.18,24.22-2.83-3.86-4.76-7.7-9.92-11.76-15.39ZM274.64,339.09c-8.77-.24-17.02-1.72-24.53-4.42-2.5-.9-4.87-1.9-7.12-3.01-5.38,4.26-11.26,7.53-17.55,9.76-8.67,3.07-16.66,3.65-22.43,3.9,9.63,8.79,21.01,16.37,35.55,21.58,10.93,3.92,22.76,6.07,35.17,6.41.15,0,.31,0,.47,0,9.24,0,16.85-7.37,17.1-16.66.25-9.45-7.2-17.32-16.65-17.57ZM284.2,221.83c-1.24,3.36-6.12,14.64-17.91,17.91-.52.14-1.03.27-1.53.37-.38-2.83-1.05-5.88-2.14-9.01.25-.55.48-1.11.71-1.66l.09-.25c1.53-5.02,1.36-10.24-.23-14.89-1.75-5.13-5.22-9.58-10.02-12.32-6.84-3.9-15.09-3.68-21.87-.14-.49.25-.98.53-1.45.82-1.59-.19-2.93-.25-3.94-.25h-.08c-1.78,0-3.47.14-5.08.38-.12-2.83.2-5.94,1.28-9.16,1.42-4.24,3.72-7.42,5.81-9.64.1-.11.21-.22.32-.33.68-.68,1.42-1.34,2.23-1.99.42-.34.85-.66,1.29-.99,5.29-3.78,10.42-4.7,12.36-5.04,7.83-1.39,15,.49,20.54,2.99h0c2.24,1.01,4.21,2.13,5.85,3.16.03.03.08.05.11.08,2.36,1.64,3.84,3.05,4.29,3.49,8.83,8.66,14.28,23.27,9.39,36.47ZM268.46,188.91c-.92-.99-1.91-1.89-2.94-2.7-1.05-.84-2.16-1.57-3.31-2.22-3.44-1.92-7.31-2.96-11.2-3.01-.97,0-1.72.75-1.73,1.69s.75,1.72,1.69,1.73c3.37.04,6.58.9,9.56,2.57,1.9,1.07,3.66,2.44,5.25,4.1h0c.06.06.12.12.18.18.34.36.79.53,1.25.53.42,0,.84-.15,1.17-.46.69-.65.73-1.73.08-2.42ZM276.83,203.85c-.22-1.18-.55-2.31-.99-3.4-.36-.89-.79-1.75-1.29-2.55-.5-.8-1.55-1.05-2.36-.55s-1.05,1.55-.55,2.36c.4.63.74,1.31,1.03,2.02.35.87.62,1.79.79,2.75.15.82.87,1.4,1.68,1.4.1,0,.21-.01.32-.03.92-.17,1.54-1.07,1.36-1.99ZM243.34,321.52c-.98,1.99-2.24,3.56-3.57,4.84-.88.72-1.77,1.4-2.68,2.05-.85.62-1.71,1.2-2.58,1.76-.01,0-.03.02-.05.03-3.51,2.23-7.2,4.05-11.07,5.42-6.47,2.29-12.65,3.06-17.65,3.38-.03,0-.05,0-.09,0-1.76.12-3.37.17-4.79.23-1.34.05-2.68.07-4.02.05-1.75,0-3.52-.05-5.27-.16-.03,0-.08,0-.11,0-4.69-.36-7.56-.99-7.56-.99-5.84-1.29-12.56-2.84-19.9-7.78-3.21-2.16-19.6-13.13-20.15-31.59-.15-5.16.92-9.67,2.29-13.26.31.29.64.6.95.9,4.92,4.75,7.48,8,9.74,10.87,2.01,2.55,3.75,4.75,6.51,7.14,3.41,2.96,7.03,5.03,10.49,6.5,5.92,2.53,11.39,3.29,14.65,3.75,2.63.37,6.14.86,10.09.86,5.66,0,12.24-1.01,18.44-4.87.6-.37,1.18-.77,1.77-1.19.51-.37,1.01-.75,1.5-1.16,5.62-3.78,8.11-7.71,13.61-7.25,1.25.1,2.49.42,3.66.92,2.27.95,4.27,2.56,5.67,4.55.2.28.39.57.56.87,3.55,6.08.2,12.84-.44,14.13ZM232.13,308.22c-.7-.64-1.78-.6-2.42.1-.08.08-.14.16-.23.23-.9.97-1.89,1.86-2.94,2.66-.77.59-1.59,1.14-2.42,1.63-.81.49-1.08,1.53-.6,2.35.32.54.89.84,1.48.84.29,0,.6-.08.87-.23.94-.56,1.87-1.19,2.75-1.86,1.01-.77,1.99-1.62,2.89-2.53.25-.25.49-.49.72-.75.64-.7.6-1.78-.1-2.42ZM149.19,192.38h-.03c-.63,1.88-1.57,3.51-2.8,4.82-2.38,2.53-5.24,3.31-9.2,4.39-.64.17-1.29.35-1.96.54-.22.06-5.44,1.57-15.69,6.05-.12.05-.24.1-.36.16-10.56,4.67-19.29,11.36-25.94,19.89-.1.12-.19.25-.29.37h0c-2.57,1.78-4.95,3.59-7.17,5.44-.06.05-.12.1-.17.14-2.16,1.8-4.16,3.64-6.01,5.48-3.05,3.04-5.71,6.12-8.03,9.18-4.27,5.63-7.38,11.18-9.65,16.27-1.88-11.87.19-21.59,1.13-26.01.35-1.64.77-3.27,1.25-4.87h0c2.72-7.14,6.29-13.8,10.65-19.89,14.78-20.62,35.1-29.48,43.63-33.02.21-.08.42-.17.61-.25.06-.03.12-.05.18-.08.01,0,.02,0,.03-.01,4.99-1.92,10.24-3.57,15.7-4.91,6.45-1.59,12.89,2.7,14.37,9.59.49,2.3.38,4.59-.25,6.7ZM139.15,182.99c-.13-.93-.99-1.59-1.93-1.46-.86.12-1.79.31-2.77.55-1.47.38-3.01.88-4.59,1.49-.88.35-1.31,1.34-.97,2.22.27.68.91,1.09,1.6,1.09.21,0,.42-.04.62-.12,1.42-.56,2.87-1.03,4.18-1.37.86-.21,1.66-.38,2.39-.48.94-.13,1.6-.99,1.47-1.93ZM149.75,147.99c0,.34-.01.69-.04,1.03-.25,3.05-1.51,5.88-3.51,8-.09.1-.19.19-.28.28-2.29,2.17-5.03,2.92-8.75,3.94-.64.18-1.29.36-1.96.54-.1.02-1.11.32-3.05,1-.04.01-.08.03-.12.04-3.51,1.17-6.88,2.5-10.09,3.96-.77.33-1.58.68-2.42,1.05-.12.05-.24.1-.36.16-10.56,4.66-19.28,11.35-25.94,19.88-.05.06-.1.12-.14.18-7.77,5.43-16.04,12.78-23.16,22.71-3.05,4.26-5.74,8.77-8.05,13.52-1.82-11.78.23-21.42,1.16-25.82,3-14.14,10.92-27.05,22.56-37.7.36-.33.73-.66,1.1-.98l.14-.12c3.17-2.66,6.46-5.14,9.85-7.44,4.2-2.85,7.93-5,11.38-6.75,1.17-.6,2.31-1.14,3.42-1.66,2.64-1.23,5.14-2.27,7.6-3.3.03-.01.05-.02.08-.03.38-.16.76-.31,1.12-.47,3.62-1.36,7.37-2.58,11.24-3.64.21-.04.42-.08.63-.12,3.4-.61,5.4-.33,7.05.06,2.04.48,6.29,1.49,8.76,5.27.31.47.56.94.77,1.42h0c.57,1.27.85,2.55.96,3.73.01.12.02.23.03.35.01.31.03.61.03.9ZM139.89,142.7c-.03-.24-.12-.47-.23-.66-.34-.57-1-.9-1.7-.81-.01,0-.03,0-.04,0-.84.12-1.76.31-2.73.55-1.47.38-3.01.88-4.59,1.5-.88.34-1.31,1.34-.97,2.22.27.67.91,1.08,1.6,1.08.21,0,.42-.03.62-.12,1.42-.56,2.87-1.03,4.18-1.36.86-.22,1.66-.38,2.39-.48.94-.13,1.6-1,1.47-1.93ZM148.55,234.91c-.4.88-.89,1.71-1.47,2.47-.23.3-.47.59-.72.87-.15.16-.3.31-.45.45-.15.14-.31.28-.47.42-.31.26-.64.51-.97.73-.16.12-.34.22-.51.32s-.34.21-.52.29c-.08.04-.14.08-.22.11-.12.07-.25.13-.38.18-.34.16-.71.32-1.08.47-.01,0-.03.01-.04.01-.39.14-.79.29-1.2.42-.21.07-.42.13-.63.2-.42.12-.86.25-1.31.38-.47.12-.94.25-1.44.39-.64.18-1.29.36-1.96.55-.02,0-.1.03-.23.07-.05.01-.12.03-.18.05-.05.01-.12.03-.19.05-.06.02-.12.04-.2.06-.23.08-.53.17-.87.29-.1.03-.21.07-.33.11-.58.19-1.27.44-2.08.73-.1.03-.21.08-.31.11-.01,0-.03.01-.05.02-1.47.54-3.31,1.24-5.52,2.13-.19.08-.38.15-.55.23-.44.17-.83.34-1.16.48-.1.04-.21.08-.29.12-.16.06-.29.12-.41.17-.04.02-.08.03-.11.05-.08.03-.15.06-.2.08-.34.15-.7.29-1.05.45-.15.06-.3.13-.45.19-.49.21-.99.42-1.49.64-10.72,4.68-19.56,11.43-26.3,20.05-.35.45-.7.91-1.04,1.38-.01.01-.03.03-.03.05-.35.47-.68.94-1.02,1.43-.34.49-.67.99-.99,1.49-.25.38-.49.77-.73,1.16-.04.05-.08.12-.11.18-.13.21-.26.42-.38.63-.23.37-.45.75-.66,1.13-.25.42-.49.86-.72,1.29-.11.19-.21.38-.31.58-.18.32-.34.65-.51.99-.1.18-.2.37-.29.56-.24.48-.47.96-.69,1.44h0c-.05.11-.1.21-.14.32-.55,1.18-1.06,2.39-1.53,3.61-.26.66-.51,1.34-.74,2.01-.17.47-.34.95-.49,1.43-.17.51-.33,1.03-.48,1.54-.04.14-.08.27-.12.4-.14.46-.27.92-.39,1.38-.02.07-.03.13-.05.2-.15.58-.29,1.15-.43,1.73,0,0,0,0,0,.01-.14.59-.27,1.18-.38,1.77-.12.57-.23,1.14-.33,1.71-.01.06-.03.13-.03.19-.08.46-.16.92-.23,1.38-.02.1-.03.19-.05.29-.03.25-.08.51-.11.76-.05.39-.1.79-.15,1.18-.12.97-.21,1.94-.27,2.91-.03.41-.05.81-.08,1.23-.02.39-.03.79-.05,1.18v.1c-.01.4-.03.79-.03,1.2,0,.62-.01,1.25,0,1.87v3.83s-.11,25.75-.11,25.75c-4.89-4.64-9.85-10.92-13.43-19.23-3.75-8.69-4.89-16.95-4.92-23.88v-.12c.15-7.15,1.27-14.11,3.37-20.77h0c.05-.16.1-.31.14-.47,1.94-6.06,5.23-13.5,10.8-21.19,1.24-1.71,2.6-3.44,4.08-5.16,1.49-1.74,3.12-3.48,4.88-5.2h0c.38-.38.77-.75,1.17-1.13.05-.05.09-.09.14-.13.6-.56,1.2-1.12,1.83-1.67h0c2.88-2.56,6.07-5.07,9.63-7.48.02,0,.03-.02.05-.03,0,0,0,0,.01,0,0,0,0,0,0,0,.01,0,.02-.01.03-.02,2.6-1.64,5.25-3.2,7.95-4.67.43-.23.86-.44,1.3-.65v-.03c.64-.34,1.3-.68,1.96-1.02.87-.44,1.75-.87,2.63-1.29.71-.34,1.41-.67,2.12-.99.05-.02.1-.05.16-.07.71-.33,1.42-.64,2.13-.95.21-.09.42-.18.64-.27.21-.09.42-.18.64-.27.03-.01.05-.02.08-.03.17-.08.34-.14.51-.21.27-.12.54-.23.81-.34.14-.05.27-.11.39-.16.13-.05.26-.1.38-.15.12-.05.25-.1.36-.14.28-.11.56-.23.85-.33.26-.11.52-.21.78-.3,1.28-.49,2.58-.94,3.9-1.38,3.31-1.1,6.72-2.08,10.21-2.94,6.45-1.59,12.89,2.71,14.37,9.6.64,2.96.26,5.92-.89,8.45ZM139.33,223.48c-.13-.94-.99-1.6-1.93-1.47-.85.12-1.78.31-2.77.55-1.47.38-3.01.88-4.59,1.49-.88.35-1.31,1.34-.97,2.23.05.14.13.27.22.39h0c.27.37.68.61,1.13.67.08.01.16.02.24.02.21,0,.42-.03.62-.12,1.42-.56,2.87-1.03,4.18-1.36.86-.22,1.66-.38,2.39-.48.93-.13,1.59-.99,1.46-1.93ZM244.81,272.54c-2.96,2.02-13.47,8.38-24.97,4.22-3.11-1.13-5.62-2.77-7.56-4.44,1.18-.46,2.34-.94,3.48-1.47,3.44-1.58,5.72-2.62,7.91-4.4,2.63-2.12,4.95-5.09,6.61-8.47,2.96-6.03,3.83-13.39.71-19.67-2.05-4.12-6.5-9.2-16.15-11.29-1.14-.25-2.34-.45-3.62-.61-3.75-.46-7.21-.14-10.29.61,1.39-4.25,4.13-9.53,9.56-13.49,3.72-2.7,7.55-3.96,10.59-4.53.06-.01.12-.03.18-.03.14-.03.28-.05.42-.06.49-.08.99-.14,1.5-.19.86-.08,1.75-.13,2.66-.13h.05c.77,0,2,.04,3.55.25h.01c.58.08,1.19.18,1.85.31,2.19.43,4.79,1.18,7.51,2.49,10.16,4.88,14.64,14,16.11,17,.37.75.71,1.51,1.02,2.26.09.19.16.39.23.58.02.03.03.05.03.08,1.05,2.64,1.74,5.23,2.17,7.68.08.46.16.91.22,1.36.1.65.17,1.29.23,1.92,0,0,0,.01,0,.02h0c.4,11.03-3.98,23.19-14.02,30.03ZM238.19,216.01c-1.44-1.11-3.01-2.01-4.69-2.69-1.64-.66-3.36-1.09-5.1-1.29-.12-.02-.25-.03-.37-.05h0c-.31-.03-.64-.05-.95-.07-.94-.05-1.75.68-1.79,1.62-.03.66.31,1.25.85,1.57,0,0,.01,0,.02,0,.03.02.07.04.1.05.2.1.42.15.65.16,1.84.09,3.62.49,5.32,1.16,1.38.56,2.69,1.31,3.88,2.23.31.24.68.36,1.05.36.51,0,1.02-.23,1.36-.66.58-.75.44-1.83-.31-2.4ZM248.42,226.41c-.57-1.05-1.23-2.03-1.99-2.92-.62-.73-1.29-1.42-2.01-2.02-.72-.61-1.8-.52-2.41.2-.61.73-.52,1.81.21,2.42.57.48,1.1,1.02,1.6,1.6.6.72,1.14,1.51,1.6,2.36.31.57.9.89,1.51.89.28,0,.56-.07.82-.21.83-.45,1.14-1.49.68-2.32Z"/>
  <g>
    <path d="M381.46,226.58c-4.33,0-7.63-1.2-9.91-3.59-2.28-2.39-3.42-5.75-3.42-10.08v-94.84c0-4.44,1.17-7.8,3.5-10.08,2.33-2.28,5.67-3.42,10-3.42h41.52c13.44,0,23.81,3.25,31.1,9.74,7.29,6.49,10.94,15.55,10.94,27.17,0,7.52-1.65,14.01-4.96,19.48-3.31,5.47-8.06,9.68-14.27,12.64-6.21,2.96-13.81,4.44-22.81,4.44l1.37-2.91h7.01c4.78,0,8.97,1.17,12.56,3.5,3.59,2.34,6.69,5.9,9.31,10.68l10.59,19.65c1.59,2.85,2.33,5.64,2.22,8.37-.12,2.73-1.14,4.96-3.08,6.66-1.94,1.71-4.78,2.56-8.54,2.56s-6.81-.8-9.14-2.39c-2.34-1.59-4.42-4.04-6.24-7.35l-16.4-30.25c-1.71-3.19-3.79-5.35-6.24-6.49-2.45-1.14-5.44-1.71-8.97-1.71h-12.99v34.52c0,4.33-1.11,7.69-3.33,10.08-2.22,2.39-5.5,3.59-9.83,3.59ZM394.62,159.25h23.75c7.06,0,12.39-1.42,15.98-4.27,3.59-2.85,5.38-7.12,5.38-12.82s-1.79-9.8-5.38-12.65c-3.59-2.85-8.92-4.27-15.98-4.27h-23.75v34Z"/>
    <path d="M507.23,226.92c-6.15,0-11.68-1.2-16.58-3.59-4.9-2.39-8.71-5.64-11.45-9.74-2.73-4.1-4.1-8.71-4.1-13.84,0-6.15,1.59-11.02,4.79-14.61,3.19-3.59,8.37-6.15,15.55-7.69s16.69-2.31,28.54-2.31h9.06v13.33h-8.89c-5.81,0-10.51.32-14.1.94-3.59.63-6.15,1.68-7.69,3.16-1.54,1.48-2.31,3.53-2.31,6.15,0,3.19,1.11,5.81,3.33,7.86,2.22,2.05,5.44,3.08,9.66,3.08,3.3,0,6.24-.77,8.8-2.31,2.56-1.54,4.58-3.64,6.07-6.32,1.48-2.67,2.22-5.72,2.22-9.14v-19.65c0-5.01-1.14-8.57-3.42-10.68-2.28-2.11-6.15-3.16-11.62-3.16-3.08,0-6.41.37-10,1.11-3.59.74-7.55,1.97-11.88,3.67-2.51,1.14-4.73,1.4-6.66.77-1.94-.62-3.42-1.76-4.44-3.42-1.02-1.65-1.54-3.47-1.54-5.47s.57-3.93,1.71-5.81c1.14-1.88,3.02-3.27,5.64-4.19,5.35-2.16,10.39-3.64,15.12-4.44,4.73-.8,9.08-1.2,13.07-1.2,8.77,0,15.98,1.28,21.62,3.84,5.64,2.56,9.88,6.49,12.73,11.79,2.85,5.3,4.27,12.11,4.27,20.42v37.93c0,4.22-1.03,7.46-3.08,9.74s-5.01,3.42-8.89,3.42-6.86-1.14-8.97-3.42c-2.11-2.28-3.16-5.52-3.16-9.74v-6.32l1.2,1.03c-.68,3.87-2.14,7.21-4.36,10-2.22,2.79-5.04,4.96-8.46,6.49-3.42,1.54-7.35,2.31-11.79,2.31Z"/>
    <path d="M600.7,226.92c-7.29,0-13.7-1.77-19.22-5.3-5.53-3.53-9.83-8.6-12.9-15.21-3.08-6.61-4.61-14.41-4.61-23.41s1.54-16.75,4.61-23.24c3.08-6.49,7.37-11.5,12.9-15.04,5.52-3.53,11.93-5.3,19.22-5.3,6.61,0,12.44,1.6,17.51,4.79,5.07,3.19,8.51,7.35,10.34,12.47h-1.88v-40.5c0-4.33,1.08-7.6,3.25-9.83,2.16-2.22,5.35-3.33,9.57-3.33s7.29,1.11,9.57,3.33c2.28,2.22,3.42,5.5,3.42,9.83v97.23c0,4.22-1.11,7.46-3.33,9.74-2.22,2.28-5.38,3.42-9.48,3.42s-7.26-1.14-9.48-3.42-3.33-5.52-3.33-9.74v-11.62l1.88,6.66c-1.6,5.58-4.99,10.05-10.17,13.41-5.18,3.36-11.14,5.04-17.86,5.04ZM608.39,207.61c3.76,0,7.01-.91,9.74-2.73,2.73-1.82,4.9-4.53,6.49-8.12,1.59-3.59,2.39-8.17,2.39-13.76,0-8.31-1.71-14.44-5.13-18.37-3.42-3.93-7.92-5.9-13.5-5.9-3.65,0-6.86.85-9.65,2.56-2.79,1.71-4.96,4.36-6.49,7.95-1.54,3.59-2.31,8.18-2.31,13.76,0,8.32,1.71,14.5,5.13,18.54,3.42,4.04,7.86,6.07,13.33,6.07Z"/>
    <path d="M679.3,226.58c-4.22,0-7.43-1.14-9.65-3.42s-3.33-5.52-3.33-9.74v-97.23c0-4.33,1.11-7.6,3.33-9.83,2.22-2.22,5.44-3.33,9.65-3.33s7.26,1.11,9.48,3.33,3.33,5.5,3.33,9.83v59.64h.34l24.78-27.51c2.5-2.85,4.81-4.98,6.92-6.41,2.11-1.42,4.93-2.14,8.46-2.14s6.24.91,8.12,2.73c1.88,1.82,2.85,4.02,2.91,6.58.06,2.56-1.05,5.16-3.33,7.77l-26.14,29.22v-9.74l29.05,33.49c2.16,2.62,3.1,5.24,2.82,7.86-.29,2.62-1.45,4.76-3.5,6.41-2.05,1.65-4.67,2.48-7.86,2.48-3.87,0-6.98-.74-9.31-2.22-2.34-1.48-4.7-3.76-7.09-6.83l-25.8-28.71h-.34v24.61c0,8.77-4.27,13.16-12.82,13.16Z"/>
    <path d="M784.05,226.92c-6.15,0-11.68-1.2-16.58-3.59-4.9-2.39-8.71-5.64-11.45-9.74-2.73-4.1-4.1-8.71-4.1-13.84,0-6.15,1.59-11.02,4.79-14.61,3.19-3.59,8.37-6.15,15.55-7.69s16.69-2.31,28.54-2.31h9.06v13.33h-8.89c-5.81,0-10.51.32-14.1.94-3.59.63-6.15,1.68-7.69,3.16-1.54,1.48-2.31,3.53-2.31,6.15,0,3.19,1.11,5.81,3.33,7.86,2.22,2.05,5.44,3.08,9.66,3.08,3.3,0,6.24-.77,8.8-2.31,2.56-1.54,4.58-3.64,6.07-6.32,1.48-2.67,2.22-5.72,2.22-9.14v-19.65c0-5.01-1.14-8.57-3.42-10.68-2.28-2.11-6.15-3.16-11.62-3.16-3.08,0-6.41.37-10,1.11-3.59.74-7.55,1.97-11.88,3.67-2.51,1.14-4.73,1.4-6.66.77-1.94-.62-3.42-1.76-4.44-3.42-1.02-1.65-1.54-3.47-1.54-5.47s.57-3.93,1.71-5.81c1.14-1.88,3.02-3.27,5.64-4.19,5.35-2.16,10.39-3.64,15.12-4.44,4.73-.8,9.08-1.2,13.07-1.2,8.77,0,15.98,1.28,21.62,3.84,5.64,2.56,9.88,6.49,12.73,11.79,2.85,5.3,4.27,12.11,4.27,20.42v37.93c0,4.22-1.03,7.46-3.08,9.74s-5.01,3.42-8.89,3.42-6.86-1.14-8.97-3.42c-2.11-2.28-3.16-5.52-3.16-9.74v-6.32l1.2,1.03c-.68,3.87-2.14,7.21-4.36,10-2.22,2.79-5.04,4.96-8.46,6.49-3.42,1.54-7.35,2.31-11.79,2.31Z"/>
    <path d="M376,373.13c-3.42,0-6.21-.71-8.37-2.14-2.17-1.42-3.62-3.36-4.36-5.81-.74-2.45-.74-5.15,0-8.12.74-2.96,2.31-5.92,4.7-8.89l62.2-81.51v8.03h-56.22c-3.76,0-6.64-.97-8.63-2.91-1.99-1.94-2.99-4.67-2.99-8.2s1-6.24,2.99-8.12c1.99-1.88,4.87-2.82,8.63-2.82h68.69c3.53,0,6.35.71,8.46,2.14,2.11,1.43,3.56,3.33,4.36,5.72.8,2.39.8,5.1,0,8.12-.8,3.02-2.39,6.01-4.78,8.97l-62.2,81.34v-7.86h58.95c3.76,0,6.63.94,8.63,2.82,1.99,1.88,2.99,4.59,2.99,8.12s-1,6.41-2.99,8.29c-2,1.88-4.87,2.82-8.63,2.82h-71.43Z"/>
    <path d="M508.6,375.01c-9.91,0-18.43-1.79-25.55-5.38-7.12-3.59-12.59-8.66-16.4-15.21-3.82-6.55-5.72-14.27-5.72-23.15s1.82-16.26,5.47-22.81c3.64-6.55,8.74-11.68,15.29-15.38,6.55-3.7,13.98-5.55,22.3-5.55,6.04,0,11.5,1,16.4,2.99,4.9,2,9.11,4.84,12.65,8.54,3.53,3.7,6.21,8.2,8.03,13.5,1.82,5.3,2.73,11.19,2.73,17.69,0,2.17-.68,3.79-2.05,4.87-1.37,1.08-3.36,1.62-5.98,1.62h-53.66v-13.33h43.06l-2.73,2.39c0-4.67-.68-8.57-2.05-11.71-1.37-3.13-3.33-5.5-5.9-7.09-2.56-1.59-5.72-2.39-9.48-2.39-4.22,0-7.8.97-10.77,2.91-2.96,1.94-5.24,4.73-6.83,8.37-1.6,3.65-2.39,8.03-2.39,13.16v1.37c0,8.66,2.02,15.04,6.07,19.14,4.04,4.1,10.05,6.15,18.03,6.15,2.73,0,5.87-.34,9.4-1.03,3.53-.68,6.84-1.76,9.91-3.25,2.62-1.25,4.96-1.68,7.01-1.28,2.05.4,3.64,1.34,4.79,2.82,1.14,1.48,1.79,3.19,1.96,5.13.17,1.94-.26,3.84-1.28,5.72-1.03,1.88-2.73,3.45-5.13,4.7-3.87,2.17-8.23,3.79-13.07,4.87-4.84,1.08-9.54,1.62-14.1,1.62Z"/>
    <path d="M566.18,374.67c-4.22,0-7.43-1.14-9.65-3.42s-3.33-5.52-3.33-9.74v-60.66c0-4.21,1.11-7.43,3.33-9.66,2.22-2.22,5.32-3.33,9.31-3.33s7.23,1.11,9.4,3.33c2.16,2.22,3.25,5.44,3.25,9.66v10.94l-1.88-6.83c2.28-5.24,5.81-9.45,10.59-12.64,4.78-3.19,10.42-4.79,16.92-4.79s11.9,1.54,16.23,4.61c4.33,3.08,7.4,7.8,9.23,14.18h-2.39c2.5-5.81,6.35-10.39,11.53-13.76,5.18-3.36,11.13-5.04,17.86-5.04s11.82,1.28,15.98,3.84c4.16,2.56,7.26,6.44,9.31,11.62,2.05,5.18,3.08,11.76,3.08,19.74v38.79c0,4.22-1.11,7.46-3.33,9.74s-5.38,3.42-9.48,3.42-7.43-1.14-9.66-3.42-3.33-5.52-3.33-9.74v-37.93c0-5.58-.88-9.65-2.65-12.22-1.77-2.56-4.76-3.84-8.97-3.84-4.9,0-8.71,1.71-11.45,5.13-2.73,3.42-4.1,8.26-4.1,14.52v34.35c0,4.22-1.11,7.46-3.33,9.74-2.22,2.28-5.38,3.42-9.48,3.42s-7.29-1.14-9.57-3.42c-2.28-2.28-3.42-5.52-3.42-9.74v-37.93c0-5.58-.88-9.65-2.65-12.22-1.77-2.56-4.76-3.84-8.97-3.84-4.9,0-8.71,1.71-11.45,5.13-2.73,3.42-4.1,8.26-4.1,14.52v34.35c0,8.77-4.27,13.16-12.82,13.16Z"/>
    <path d="M727.15,375.01c-6.15,0-11.68-1.2-16.58-3.59-4.9-2.39-8.71-5.64-11.45-9.74-2.73-4.1-4.1-8.71-4.1-13.84,0-6.15,1.59-11.02,4.79-14.61,3.19-3.59,8.37-6.15,15.55-7.69s16.69-2.31,28.54-2.31h9.06v13.33h-8.89c-5.81,0-10.51.32-14.1.94-3.59.63-6.15,1.68-7.69,3.16-1.54,1.48-2.31,3.53-2.31,6.15,0,3.19,1.11,5.81,3.33,7.86,2.22,2.05,5.44,3.08,9.66,3.08,3.3,0,6.24-.77,8.8-2.31,2.56-1.54,4.58-3.64,6.07-6.32,1.48-2.67,2.22-5.72,2.22-9.14v-19.65c0-5.01-1.14-8.57-3.42-10.68-2.28-2.11-6.15-3.16-11.62-3.16-3.08,0-6.41.37-10,1.11-3.59.74-7.55,1.97-11.88,3.67-2.51,1.14-4.73,1.4-6.66.77-1.94-.62-3.42-1.76-4.44-3.42-1.02-1.65-1.54-3.47-1.54-5.47s.57-3.93,1.71-5.81c1.14-1.88,3.02-3.27,5.64-4.19,5.35-2.16,10.39-3.64,15.12-4.44,4.73-.8,9.08-1.2,13.07-1.2,8.77,0,15.98,1.28,21.62,3.84,5.64,2.56,9.88,6.49,12.73,11.79,2.85,5.3,4.27,12.11,4.27,20.42v37.93c0,4.22-1.03,7.46-3.08,9.74s-5.01,3.42-8.89,3.42-6.86-1.14-8.97-3.42c-2.11-2.28-3.16-5.52-3.16-9.74v-6.32l1.2,1.03c-.68,3.87-2.14,7.21-4.36,10-2.22,2.79-5.04,4.96-8.46,6.49-3.42,1.54-7.35,2.31-11.79,2.31Z"/>
    <path d="M800.97,374.67c-4.22,0-7.43-1.14-9.65-3.42s-3.33-5.52-3.33-9.74v-60.66c0-4.21,1.11-7.43,3.33-9.66,2.22-2.22,5.32-3.33,9.31-3.33s7.23,1.11,9.4,3.33c2.16,2.22,3.25,5.44,3.25,9.66v9.74l-1.88-5.64c2.62-5.58,6.52-9.88,11.71-12.9,5.18-3.02,11.08-4.53,17.69-4.53s12.24,1.28,16.58,3.84c4.33,2.56,7.57,6.44,9.74,11.62,2.16,5.18,3.25,11.76,3.25,19.74v38.79c0,4.22-1.11,7.46-3.33,9.74s-5.44,3.42-9.65,3.42-7.26-1.14-9.48-3.42-3.33-5.52-3.33-9.74v-37.59c0-5.81-1.05-10-3.16-12.56-2.11-2.56-5.33-3.84-9.65-3.84-5.47,0-9.83,1.71-13.07,5.13-3.25,3.42-4.87,7.98-4.87,13.67v35.2c0,8.77-4.27,13.16-12.82,13.16Z"/>
    <path d="M924,375.01c-9,0-16.83-1.77-23.5-5.3-6.66-3.53-11.82-8.6-15.46-15.21-3.65-6.61-5.47-14.41-5.47-23.41,0-6.72,1.03-12.76,3.08-18.11,2.05-5.35,5.04-9.94,8.97-13.76,3.93-3.82,8.63-6.72,14.1-8.71,5.47-1.99,11.56-2.99,18.28-2.99,9,0,16.83,1.77,23.5,5.3,6.66,3.53,11.85,8.54,15.55,15.04,3.7,6.49,5.55,14.24,5.55,23.24,0,6.83-1.05,12.93-3.16,18.28-2.11,5.36-5.1,9.97-8.97,13.84s-8.57,6.81-14.1,8.8c-5.53,1.99-11.65,2.99-18.37,2.99ZM924,355.7c3.76,0,7.01-.91,9.74-2.73,2.73-1.82,4.9-4.53,6.49-8.12,1.59-3.59,2.39-8.17,2.39-13.76,0-8.31-1.71-14.44-5.13-18.37-3.42-3.93-7.92-5.9-13.5-5.9-3.65,0-6.86.85-9.65,2.56-2.79,1.71-4.96,4.36-6.49,7.95-1.54,3.59-2.31,8.18-2.31,13.76,0,8.32,1.71,14.5,5.13,18.54,3.42,4.04,7.86,6.07,13.33,6.07Z"/>
    <path d="M1013.88,374.67c-3.31,0-6.21-.88-8.71-2.65-2.51-1.77-4.5-4.41-5.98-7.95l-25.8-59.47c-1.25-2.96-1.71-5.72-1.37-8.29.34-2.56,1.56-4.61,3.67-6.15,2.11-1.54,5.04-2.31,8.8-2.31,3.08,0,5.58.71,7.52,2.14,1.94,1.43,3.64,4.13,5.13,8.12l20.16,51.26h-5.47l21.02-51.43c1.59-3.87,3.36-6.52,5.3-7.95,1.94-1.42,4.61-2.14,8.03-2.14,2.96,0,5.32.77,7.09,2.31,1.77,1.54,2.85,3.56,3.25,6.07.4,2.51-.09,5.24-1.45,8.2l-26.32,59.64c-1.48,3.65-3.45,6.32-5.9,8.03-2.45,1.71-5.44,2.56-8.97,2.56Z"/>
    <path d="M1091.97,375.01c-6.15,0-11.68-1.2-16.58-3.59-4.9-2.39-8.71-5.64-11.45-9.74-2.73-4.1-4.1-8.71-4.1-13.84,0-6.15,1.59-11.02,4.79-14.61,3.19-3.59,8.37-6.15,15.55-7.69s16.69-2.31,28.54-2.31h9.06v13.33h-8.89c-5.81,0-10.51.32-14.1.94-3.59.63-6.15,1.68-7.69,3.16-1.54,1.48-2.31,3.53-2.31,6.15,0,3.19,1.11,5.81,3.33,7.86,2.22,2.05,5.44,3.08,9.66,3.08,3.3,0,6.24-.77,8.8-2.31,2.56-1.54,4.58-3.64,6.07-6.32,1.48-2.67,2.22-5.72,2.22-9.14v-19.65c0-5.01-1.14-8.57-3.42-10.68-2.28-2.11-6.15-3.16-11.62-3.16-3.08,0-6.41.37-10,1.11-3.59.74-7.55,1.97-11.88,3.67-2.51,1.14-4.73,1.4-6.66.77-1.94-.62-3.42-1.76-4.44-3.42-1.02-1.65-1.54-3.47-1.54-5.47s.57-3.93,1.71-5.81c1.14-1.88,3.02-3.27,5.64-4.19,5.35-2.16,10.39-3.64,15.12-4.44,4.73-.8,9.08-1.2,13.07-1.2,8.77,0,15.98,1.28,21.62,3.84,5.64,2.56,9.88,6.49,12.73,11.79,2.85,5.3,4.27,12.11,4.27,20.42v37.93c0,4.22-1.03,7.46-3.08,9.74s-5.01,3.42-8.89,3.42-6.86-1.14-8.97-3.42c-2.11-2.28-3.16-5.52-3.16-9.74v-6.32l1.2,1.03c-.68,3.87-2.14,7.21-4.36,10-2.22,2.79-5.04,4.96-8.46,6.49-3.42,1.54-7.35,2.31-11.79,2.31ZM1111.45,277.1c-1.37,1.82-2.99,2.85-4.87,3.08-1.88.23-3.67-.11-5.38-1.03-1.71-.91-2.93-2.25-3.67-4.02-.74-1.76-.6-3.67.43-5.72l12.13-24.09c1.14-2.5,2.71-4.1,4.7-4.78,1.99-.68,4.04-.74,6.15-.17,2.11.57,3.93,1.57,5.47,2.99,1.54,1.43,2.48,3.16,2.82,5.21s-.29,4.16-1.88,6.32l-15.89,22.21Z"/>
  </g>
</svg>