<?xml version="1.0" encoding="UTF-8"?>
<svg id="SQUARE_COLOR" data-name="SQUARE COLOR" xmlns="http://www.w3.org/2000/svg" xmlns:xlink="http://www.w3.org/1999/xlink" viewBox="0 0 750 750">
  <defs>
    <style>
      .cls-1 {
        fill: url(#Nepojmenovaný_přechod_70-9);
      }

      .cls-2 {
        fill: url(#Nepojmenovaný_přechod_70-3);
      }

      .cls-3 {
        fill: url(#Nepojmenovaný_přechod_70-4);
      }

      .cls-4 {
        fill: url(#Nepojmenovaný_přechod_70-2);
      }

      .cls-5 {
        fill: url(#Nepojmenovaný_přechod_70-7);
      }

      .cls-6 {
        fill: url(#Nepojmenovaný_přechod_70-8);
      }

      .cls-7 {
        fill: url(#Nepojmenovaný_přechod_70-5);
      }

      .cls-8 {
        fill: url(#Nepojmenovaný_přechod_70-6);
      }

      .cls-9 {
        fill: url(#Nepojmenovaný_přechod_70);
      }

      .cls-10 {
        fill: url(#Nepojmenovaný_přechod_70-13);
      }

      .cls-11 {
        fill: url(#Nepojmenovaný_přechod_70-12);
      }

      .cls-12 {
        fill: url(#Nepojmenovaný_přechod_70-14);
      }

      .cls-13 {
        fill: url(#Nepojmenovaný_přechod_70-10);
      }

      .cls-14 {
        fill: url(#Nepojmenovaný_přechod_70-11);
      }
    </style>
    <linearGradient id="Nepojmenovaný_přechod_70" data-name="Nepojmenovaný přechod 70" x1="375" y1="472.37" x2="375" y2="74.68" gradientUnits="userSpaceOnUse">
      <stop offset=".15" stop-color="#374091"/>
      <stop offset="1" stop-color="#f34b6d"/>
    </linearGradient>
    <linearGradient id="Nepojmenovaný_přechod_70-2" data-name="Nepojmenovaný přechod 70" x1="623.34" y1="854.35" x2="623.34" y2="684.05" gradientTransform="translate(-248.34 -179.02)" xlink:href="#Nepojmenovaný_přechod_70"/>
    <linearGradient id="Nepojmenovaný_přechod_70-3" data-name="Nepojmenovaný přechod 70" x1="623.34" y1="854.35" x2="623.34" y2="684.05" gradientTransform="translate(-248.34 -179.02)" xlink:href="#Nepojmenovaný_přechod_70"/>
    <linearGradient id="Nepojmenovaný_přechod_70-4" data-name="Nepojmenovaný přechod 70" x1="623.34" y1="854.35" x2="623.34" y2="684.05" gradientTransform="translate(-248.34 -179.02)" xlink:href="#Nepojmenovaný_přechod_70"/>
    <linearGradient id="Nepojmenovaný_přechod_70-5" data-name="Nepojmenovaný přechod 70" x1="623.34" y1="854.35" x2="623.34" y2="684.05" gradientTransform="translate(-248.34 -179.02)" xlink:href="#Nepojmenovaný_přechod_70"/>
    <linearGradient id="Nepojmenovaný_přechod_70-6" data-name="Nepojmenovaný přechod 70" x1="623.34" y1="854.35" x2="623.34" y2="684.05" gradientTransform="translate(-248.34 -179.02)" xlink:href="#Nepojmenovaný_přechod_70"/>
    <linearGradient id="Nepojmenovaný_přechod_70-7" data-name="Nepojmenovaný přechod 70" x1="623.34" y1="854.35" x2="623.34" y2="684.05" gradientTransform="translate(-248.34 -179.02)" xlink:href="#Nepojmenovaný_přechod_70"/>
    <linearGradient id="Nepojmenovaný_přechod_70-8" data-name="Nepojmenovaný přechod 70" x1="623.34" y1="854.35" x2="623.34" y2="684.05" gradientTransform="translate(-248.34 -179.02)" xlink:href="#Nepojmenovaný_přechod_70"/>
    <linearGradient id="Nepojmenovaný_přechod_70-9" data-name="Nepojmenovaný přechod 70" x1="623.34" y1="854.35" x2="623.34" y2="684.05" gradientTransform="translate(-248.34 -179.02)" xlink:href="#Nepojmenovaný_přechod_70"/>
    <linearGradient id="Nepojmenovaný_přechod_70-10" data-name="Nepojmenovaný přechod 70" x1="623.34" y1="854.35" x2="623.34" y2="684.05" gradientTransform="translate(-248.34 -179.02)" xlink:href="#Nepojmenovaný_přechod_70"/>
    <linearGradient id="Nepojmenovaný_přechod_70-11" data-name="Nepojmenovaný přechod 70" x1="623.34" y1="854.35" x2="623.34" y2="684.05" gradientTransform="translate(-248.34 -179.02)" xlink:href="#Nepojmenovaný_přechod_70"/>
    <linearGradient id="Nepojmenovaný_přechod_70-12" data-name="Nepojmenovaný přechod 70" x1="623.34" y1="854.35" x2="623.34" y2="684.05" gradientTransform="translate(-248.34 -179.02)" xlink:href="#Nepojmenovaný_přechod_70"/>
    <linearGradient id="Nepojmenovaný_přechod_70-13" data-name="Nepojmenovaný přechod 70" x1="623.34" y1="854.35" x2="623.34" y2="684.05" gradientTransform="translate(-248.34 -179.02)" xlink:href="#Nepojmenovaný_přechod_70"/>
    <linearGradient id="Nepojmenovaný_přechod_70-14" data-name="Nepojmenovaný přechod 70" x1="623.34" y1="854.35" x2="623.34" y2="684.05" gradientTransform="translate(-248.34 -179.02)" xlink:href="#Nepojmenovaný_přechod_70"/>
  </defs>
  <path class="cls-9" d="M439.3,307.54c-2.35,1.9-4.98,3.1-9.76,5.29-3.62,1.66-7.35,3.08-11.16,4.24-2.8.15-6.07-.12-9.47-1.36-12.98-4.74-21.28-21.31-16.88-33.76,1.49-4.2,4.22-7.39,6.51-9.48,2.39-1.82,6.11-4.22,10.82-5.95.62-.23,1.25-.44,1.91-.66.02,0,.04-.01.06-.01.87-.27,1.76-.51,2.68-.71,1.1-.25,2.24-.45,3.41-.6,2.56-.31,5.26-.35,8.11,0,11.06,1.35,18.72,5.71,22.14,12.59,5.48,11-1.34,24.73-8.37,30.4ZM484.03,227.39c-4.6-2.63-9.81-3.5-14.86-2.83.71.29,1.41.62,2.13.96,13.13,6.31,20.74,16.43,24.84,23.36-.08-8.85-4.55-17.19-12.11-21.49ZM503.11,174.38c-8.49-2.95-18.64-4.64-29.63-2.69-3.33.6-12.04,2.13-21.27,8.53-2.84-8.15-6.82-15.83-11.67-22.37-21.29-28.7-60.83-39.9-97.35-28.01-.58-1.48-1.32-2.96-2.27-4.42-5.63-8.64-14.61-10.76-18.45-11.67-4.52-1.07-9.37-1.33-16.53.28-3.3-12.41,3.29-25.54,15.57-30.14,58.57-21.9,124.2-3.87,159.6,43.85,10.45,14.08,17.82,30.08,22.01,46.63ZM437.19,101.89c-7.36-4.54-15.23-8.14-23.42-10.72-5.87-1.86-11.95-3.19-18.08-3.98-1.37-.18-2.65.8-2.83,2.18-.17,1.38.81,2.65,2.18,2.82,5.84.76,11.63,2.03,17.22,3.8,7.79,2.46,15.29,5.89,22.28,10.19.41.25.87.38,1.32.38.85,0,1.68-.43,2.15-1.2.74-1.19.36-2.75-.82-3.48ZM464.3,124.21c-1.45-2.3-3.15-4.46-5.04-6.41-2.11-2.19-4.49-4.15-7.05-5.81-1.17-.77-2.73-.43-3.5.74-.76,1.17-.42,2.74.75,3.5,2.24,1.45,4.31,3.16,6.17,5.08,1.65,1.71,3.12,3.6,4.39,5.6.48.76,1.3,1.17,2.14,1.17.46,0,.93-.12,1.34-.38,1.18-.75,1.54-2.31.79-3.49ZM241.27,141.24v-28.48c0-13.62,11.14-24.76,24.77-24.76,6.81,0,13.01,2.79,17.5,7.27s7.27,10.68,7.27,17.49v6.17c-1.16.46-2.37.95-3.63,1.48-2.48,1.03-5.03,2.1-7.71,3.28v-11.76c0-1.4-1.13-2.53-2.53-2.53s-2.53,1.12-2.53,2.53v14.07c-6.48,3.07-13.65,6.95-21.89,12.55-3.85,2.61-7.61,5.37-11.27,8.28v-5.6ZM412.59,350.88c-6.7-9.03-13.68-18.43-21.41-27.84-8.91-11.75-17.44-20.22-23.72-25.86-8.25-7.42-16.62-13.5-27.71-20.6-.67.94-1.39,1.82-2.17,2.66-5.26,5.6-11.36,7.26-17.81,9.02-.92.24-1.85.5-2.79.77-.07.02-7.54,2.19-22.01,8.52-14.41,6.29-26.28,15.33-35.28,26.84-4.95,6.33-9.17,13.81-12.21,21.64-4.06,10.47-6.05,21.5-5.93,32.81l-.25,66.27h-.03v2.51c0,13.63,11.14,24.77,24.77,24.77s24.77-11.14,24.77-24.77v-144.36c1.52.81,3.03,1.64,4.53,2.49,2.28,1.29,4.51,2.62,6.68,3.98,10.52,6.57,19.68,13.82,27.92,21.51,2.63,2.26,5.21,4.64,7.71,7.05,7.64,7.39,11.78,12.63,15.1,16.84,2.83,3.59,5.06,6.42,8.55,9.44,11.83,10.25,26.07,12.27,32.92,13.23,8.18,1.15,22.87,3.22,35.73-4.18-5.7-7.02-11.36-14.63-17.35-22.7ZM520.22,421.8c-12.94-.35-25.12-2.54-36.2-6.52-3.69-1.32-7.18-2.8-10.51-4.44-7.94,6.28-16.62,11.11-25.89,14.4-12.79,4.54-24.58,5.38-33.1,5.75,14.21,12.96,31,24.16,52.46,31.85,16.12,5.78,33.58,8.96,51.89,9.46.22.01.45.01.69.01,13.63,0,24.86-10.87,25.24-24.58.37-13.94-10.63-25.55-24.57-25.92ZM534.33,248.78c-1.83,4.96-9.03,21.6-26.42,26.43-.77.21-1.52.39-2.26.55-.56-4.18-1.55-8.67-3.15-13.3.36-.81.71-1.64,1.04-2.46l.13-.36c2.26-7.41,2-15.1-.34-21.97-2.58-7.57-7.7-14.13-14.78-18.18-10.09-5.76-22.27-5.43-32.27-.21-.73.37-1.44.78-2.14,1.21-2.34-.28-4.32-.36-5.82-.36h-.12c-2.63.01-5.12.21-7.5.57-.18-4.18.29-8.76,1.89-13.52,2.09-6.25,5.5-10.94,8.58-14.23.15-.16.31-.32.48-.48,1.01-1,2.1-1.98,3.28-2.93.62-.5,1.25-.98,1.91-1.45,7.8-5.58,15.38-6.93,18.24-7.44,11.55-2.05,22.14.73,30.3,4.41h0c3.3,1.5,6.21,3.14,8.63,4.67.05.04.11.07.16.11,3.49,2.42,5.67,4.51,6.32,5.14,13.03,12.77,21.08,34.33,13.85,53.81ZM511.1,200.22c-1.36-1.45-2.82-2.79-4.33-3.99-1.56-1.23-3.18-2.32-4.88-3.27-5.07-2.84-10.78-4.37-16.52-4.45-1.42-.01-2.54,1.1-2.56,2.5-.02,1.39,1.1,2.54,2.5,2.56,4.97.06,9.71,1.33,14.1,3.8,2.81,1.58,5.41,3.61,7.74,6.05h0c.09.09.18.18.26.27.5.53,1.17.79,1.84.79.63,0,1.24-.22,1.73-.68,1.02-.96,1.07-2.56.12-3.58ZM523.45,222.25c-.32-1.74-.81-3.41-1.45-5.01-.53-1.31-1.16-2.58-1.9-3.76-.74-1.18-2.29-1.55-3.48-.81s-1.56,2.29-.82,3.48c.59.93,1.09,1.94,1.52,2.98.52,1.28.91,2.65,1.17,4.05.22,1.21,1.28,2.06,2.48,2.06.15,0,.31-.02.47-.05,1.36-.25,2.27-1.58,2.01-2.94ZM474.03,395.87c-1.44,2.93-3.3,5.25-5.27,7.14-1.3,1.06-2.62,2.07-3.96,3.03-1.25.91-2.53,1.77-3.81,2.6-.02.01-.05.03-.07.04-5.17,3.29-10.63,5.97-16.34,7.99-9.55,3.38-18.67,4.52-26.05,4.99-.04.01-.08.01-.13.01-2.6.17-4.97.25-7.06.33-1.97.07-3.95.1-5.93.08-2.59,0-5.19-.08-7.77-.24-.05,0-.11-.01-.16-.01-6.92-.54-11.15-1.46-11.15-1.46-8.62-1.9-18.54-4.19-29.36-11.48-4.74-3.18-28.92-19.37-29.73-46.61-.22-7.62,1.36-14.27,3.38-19.56.46.43.94.88,1.4,1.33,7.25,7.01,11.03,11.81,14.38,16.04,2.97,3.76,5.54,7.01,9.6,10.53,5.03,4.36,10.37,7.43,15.48,9.59,8.73,3.73,16.8,4.86,21.61,5.54,3.88.55,9.06,1.27,14.89,1.27,8.36,0,18.06-1.5,27.21-7.18.88-.55,1.75-1.13,2.62-1.76.76-.55,1.5-1.11,2.21-1.71,8.28-5.58,11.96-11.38,20.08-10.7,1.85.15,3.67.62,5.39,1.35,3.34,1.4,6.3,3.78,8.37,6.71.29.41.58.84.83,1.28,5.23,8.97.29,18.94-.65,20.84ZM457.49,376.24c-1.03-.94-2.63-.88-3.58.14-.11.11-.21.23-.33.34-1.33,1.42-2.79,2.74-4.33,3.92-1.14.87-2.34,1.68-3.57,2.4-1.2.72-1.6,2.26-.89,3.47.48.8,1.31,1.23,2.18,1.23.43,0,.88-.11,1.28-.34,1.39-.83,2.76-1.76,4.05-2.75,1.5-1.14,2.93-2.39,4.26-3.74.36-.36.72-.73,1.06-1.1.94-1.03.88-2.63-.14-3.58ZM335.12,205.33h-.04c-.93,2.78-2.31,5.17-4.13,7.11-3.51,3.73-7.73,4.88-13.58,6.48-.94.25-1.91.52-2.89.8-.32.09-8.03,2.31-23.15,8.92-.17.08-.35.15-.53.24-15.58,6.89-28.46,16.76-38.28,29.34-.14.18-.28.36-.42.55h-.01c-3.79,2.63-7.3,5.3-10.58,8.03-.09.07-.17.14-.25.21-3.18,2.66-6.13,5.36-8.87,8.09-4.51,4.49-8.43,9.03-11.84,13.55-6.29,8.3-10.89,16.5-14.24,24.01-2.77-17.52.28-31.86,1.67-38.37.52-2.42,1.13-4.82,1.84-7.18h0c4.01-10.54,9.27-20.37,15.71-29.35,21.8-30.43,51.79-43.49,64.38-48.72.31-.12.62-.25.9-.36.09-.04.18-.07.26-.11.02-.01.03-.01.05-.02,7.37-2.84,15.1-5.26,23.17-7.24,9.52-2.34,19.01,3.99,21.2,14.15.73,3.39.56,6.78-.36,9.88ZM320.3,191.48c-.19-1.37-1.47-2.34-2.85-2.15-1.26.17-2.64.45-4.08.82-2.17.56-4.45,1.29-6.77,2.2-1.29.52-1.94,1.98-1.42,3.27.39,1,1.34,1.61,2.35,1.61.3,0,.62-.06.92-.17,2.09-.83,4.23-1.53,6.16-2.02,1.26-.31,2.46-.56,3.53-.71,1.38-.19,2.35-1.46,2.16-2.85ZM335.94,139.83c0,.51-.02,1.02-.06,1.52-.36,4.5-2.23,8.68-5.18,11.8-.13.15-.27.28-.41.41-3.37,3.2-7.43,4.31-12.91,5.81-.94.26-1.91.53-2.89.8-.14.03-1.64.47-4.5,1.48-.06.02-.12.04-.18.06-5.18,1.73-10.15,3.69-14.89,5.85-1.14.48-2.33,1-3.58,1.55-.17.08-.35.15-.53.24-15.58,6.88-28.45,16.75-38.28,29.33-.07.09-.14.18-.21.27-11.46,8.01-23.66,18.86-34.17,33.51-4.5,6.28-8.47,12.94-11.87,19.95-2.69-17.39.33-31.6,1.71-38.1,4.43-20.86,16.11-39.92,33.28-55.62.54-.48,1.07-.97,1.62-1.44l.21-.18c4.68-3.92,9.53-7.59,14.54-10.98,6.2-4.2,11.7-7.38,16.79-9.96,1.73-.88,3.4-1.69,5.05-2.44,3.89-1.81,7.58-3.35,11.21-4.87.04-.02.08-.03.12-.05.57-.23,1.12-.46,1.66-.69,5.34-2.01,10.87-3.81,16.58-5.37.31-.06.63-.12.93-.17,5.01-.9,7.97-.48,10.4.09,3.01.71,9.28,2.19,12.92,7.78.45.7.83,1.39,1.14,2.1h.01c.84,1.88,1.25,3.77,1.41,5.5.02.17.03.34.04.52.02.46.04.9.04,1.32ZM321.4,132.03c-.05-.35-.17-.69-.34-.97-.51-.84-1.48-1.33-2.51-1.19-.02,0-.04.01-.06.01-1.24.18-2.6.45-4.02.81-2.16.56-4.45,1.29-6.77,2.21-1.29.51-1.94,1.97-1.42,3.27.39.99,1.34,1.6,2.35,1.6.3,0,.62-.05.92-.17,2.1-.83,4.23-1.52,6.16-2.01,1.26-.32,2.45-.57,3.53-.71,1.38-.19,2.35-1.48,2.16-2.85ZM334.17,268.08c-.59,1.29-1.31,2.52-2.16,3.64-.33.44-.69.87-1.06,1.28-.22.23-.44.45-.67.67-.22.21-.45.41-.69.62-.46.38-.94.75-1.42,1.07-.24.17-.5.32-.75.47s-.51.3-.77.43c-.11.06-.21.11-.32.16-.18.1-.36.19-.56.27-.51.24-1.04.47-1.59.69-.02.01-.04.02-.06.02-.58.21-1.16.42-1.77.63-.31.1-.62.19-.93.29-.63.18-1.27.37-1.94.57-.69.18-1.39.37-2.12.58-.94.26-1.91.53-2.89.81-.03.01-.14.04-.33.1-.08.02-.17.04-.27.08-.08.02-.17.05-.28.08-.09.03-.18.06-.29.09-.34.12-.78.25-1.28.42-.15.05-.31.1-.48.16-.85.28-1.87.65-3.07,1.08-.15.05-.3.11-.46.16-.02.01-.04.02-.07.03-2.17.8-4.88,1.83-8.14,3.14-.28.11-.56.22-.82.33-.65.25-1.22.5-1.72.71-.15.06-.3.12-.43.18-.23.09-.43.18-.61.25-.06.03-.11.05-.16.07-.12.05-.22.09-.29.12-.51.22-1.03.43-1.56.67-.22.09-.44.19-.66.28-.72.3-1.45.62-2.2.95-15.81,6.91-28.86,16.86-38.81,29.58-.52.67-1.03,1.34-1.54,2.03-.02.02-.04.05-.05.07-.52.7-1.01,1.39-1.51,2.11-.5.73-.99,1.45-1.47,2.2-.36.56-.73,1.13-1.08,1.71-.06.08-.11.17-.16.26-.19.3-.38.62-.56.93-.34.55-.67,1.1-.98,1.67-.36.63-.72,1.26-1.06,1.91-.16.28-.31.57-.45.85-.26.47-.51.96-.75,1.45-.15.27-.29.55-.42.83-.35.71-.7,1.41-1.02,2.13h-.01c-.07.16-.14.31-.21.47-.81,1.75-1.57,3.53-2.26,5.32-.38.98-.75,1.97-1.09,2.97-.25.7-.49,1.4-.72,2.11-.25.76-.48,1.52-.71,2.27-.06.2-.12.39-.17.6-.2.68-.39,1.35-.58,2.04-.03.1-.05.19-.08.29-.22.85-.43,1.7-.64,2.55,0,.01-.01.01-.01.02-.2.87-.39,1.74-.57,2.61-.18.84-.34,1.68-.48,2.53-.02.09-.04.19-.05.28-.12.68-.23,1.36-.33,2.04-.03.14-.05.28-.07.42-.05.37-.11.75-.16,1.12-.08.58-.15,1.16-.22,1.75-.17,1.42-.3,2.86-.4,4.29-.05.61-.08,1.2-.12,1.81-.03.58-.05,1.16-.08,1.74v.15c-.02.59-.04,1.17-.05,1.77,0,.92-.02,1.84,0,2.76l-.02,5.65-.14,38c-7.21-6.84-14.54-16.11-19.82-28.37-5.53-12.82-7.21-25.02-7.26-35.23v-.17c.22-10.55,1.88-20.82,4.97-30.64h0c.07-.24.14-.45.21-.69,2.87-8.94,7.72-19.92,15.93-31.26,1.83-2.53,3.83-5.07,6.02-7.62,2.2-2.57,4.6-5.13,7.19-7.68h0c.57-.56,1.14-1.11,1.73-1.67.07-.07.13-.13.2-.19.88-.83,1.78-1.65,2.7-2.47h.01c4.24-3.78,8.96-7.48,14.22-11.04.03-.01.05-.03.08-.05,0,0,0-.01.02-.01,0-.01,0-.01,0-.01.02-.01.03-.02.05-.03,3.83-2.42,7.74-4.72,11.73-6.89.64-.33,1.27-.65,1.92-.96l-.02-.05c.97-.51,1.94-1.01,2.91-1.51,1.28-.65,2.59-1.28,3.88-1.91,1.04-.5,2.08-.99,3.13-1.46.08-.03.15-.07.23-.1,1.04-.48,2.09-.95,3.14-1.4.31-.13.62-.27.94-.4.31-.13.63-.27.94-.39.04-.02.07-.03.11-.05.25-.11.49-.21.75-.31.39-.17.8-.33,1.2-.51.2-.08.39-.16.58-.23.19-.08.38-.15.56-.22.18-.08.36-.14.53-.21.41-.16.83-.33,1.25-.48.38-.16.77-.3,1.15-.44,1.89-.72,3.81-1.38,5.75-2.03,4.88-1.63,9.91-3.07,15.06-4.34,9.52-2.34,19.01,4,21.2,14.16.94,4.36.38,8.73-1.31,12.47ZM320.57,251.22c-.19-1.38-1.45-2.35-2.85-2.16-1.25.18-2.63.45-4.08.82-2.16.56-4.45,1.29-6.77,2.2-1.29.52-1.93,1.98-1.42,3.28.08.21.19.4.32.58h.01c.39.55,1,.9,1.67.99.11.02.23.03.35.03.3,0,.62-.05.92-.17,2.1-.83,4.23-1.53,6.17-2.01,1.26-.32,2.44-.57,3.53-.71,1.37-.19,2.34-1.46,2.15-2.85ZM476.2,323.61c-4.36,2.98-19.87,12.37-36.85,6.22-4.59-1.67-8.28-4.09-11.15-6.56,1.74-.68,3.45-1.39,5.13-2.17,5.08-2.33,8.44-3.87,11.67-6.49,3.88-3.13,7.3-7.51,9.75-12.5,4.36-8.9,5.66-19.76,1.05-29.03-3.03-6.07-9.59-13.57-23.83-16.66-1.68-.36-3.46-.67-5.34-.9-5.53-.68-10.64-.2-15.18.9,2.05-6.26,6.09-14.06,14.1-19.9,5.49-3.99,11.14-5.84,15.63-6.69.09-.02.18-.04.27-.05.2-.04.41-.07.63-.09.72-.12,1.46-.21,2.21-.28,1.27-.12,2.59-.19,3.93-.19h.08c1.14,0,2.95.06,5.23.37h.02c.85.11,1.76.26,2.73.45,3.23.64,7.07,1.75,11.08,3.67,14.99,7.2,21.6,20.66,23.77,25.09.55,1.11,1.05,2.23,1.51,3.33.13.28.24.58.34.86.03.04.04.08.05.11,1.55,3.9,2.57,7.72,3.2,11.33.12.68.23,1.34.32,2,.14.96.25,1.9.33,2.83,0,.01,0,.02,0,.03v.02c.59,16.26-5.87,34.2-20.69,44.29ZM466.45,240.19c-2.12-1.64-4.45-2.97-6.92-3.97-2.42-.97-4.95-1.61-7.53-1.9-.18-.03-.36-.05-.55-.07h0c-.46-.04-.94-.08-1.4-.1-1.38-.07-2.59,1-2.65,2.39-.05.98.46,1.85,1.25,2.31.01,0,.02.01.03.01.05.03.1.06.15.08.29.14.62.22.96.24,2.71.13,5.34.72,7.85,1.72,2.04.83,3.97,1.93,5.72,3.28.46.35,1.01.53,1.55.53.76,0,1.51-.33,2-.98.86-1.11.65-2.7-.45-3.55ZM481.54,255.54c-.84-1.55-1.82-2.99-2.93-4.31-.91-1.08-1.91-2.09-2.97-2.98-1.06-.9-2.66-.77-3.56.29-.9,1.07-.77,2.67.3,3.57.84.71,1.63,1.51,2.35,2.36.89,1.06,1.69,2.23,2.36,3.49.46.84,1.33,1.31,2.22,1.31.41,0,.83-.1,1.21-.3,1.22-.67,1.68-2.2,1-3.42Z"/>
  <g>
    <path class="cls-4" d="M239.8,582.27c-2.64,0-4.68-.73-6.11-2.2-1.43-1.46-2.14-3.55-2.14-6.27v-59.46c0-2.78.73-4.89,2.2-6.32,1.46-1.43,3.52-2.14,6.16-2.14h26.14c8.36,0,14.84,2.04,19.44,6.11,4.61,4.07,6.91,9.75,6.91,17.03,0,4.71-1.04,8.78-3.11,12.21-2.07,3.43-5.07,6.07-9,7.93-3.93,1.86-8.68,2.79-14.25,2.79l.96-1.71h4.28c3,0,5.63.72,7.88,2.14,2.25,1.43,4.16,3.64,5.73,6.64l6.75,12.43c1.07,1.79,1.55,3.52,1.45,5.19-.11,1.68-.77,3.04-1.98,4.07-1.22,1.03-3,1.55-5.36,1.55s-4.27-.48-5.73-1.45c-1.46-.96-2.77-2.48-3.91-4.55l-10.39-18.86c-1-2.07-2.27-3.45-3.8-4.12-1.54-.68-3.45-1.02-5.73-1.02h-8.04v21.53c0,2.71-.7,4.8-2.09,6.27-1.39,1.46-3.48,2.2-6.27,2.2ZM248.16,540.16h15c4.36,0,7.66-.89,9.91-2.68s3.37-4.46,3.37-8.04-1.12-6.14-3.37-7.93c-2.25-1.79-5.55-2.68-9.91-2.68h-15v21.32Z"/>
    <path class="cls-2" d="M318.87,582.48c-4,0-7.5-.73-10.5-2.2-3-1.46-5.36-3.46-7.07-6-1.71-2.53-2.57-5.45-2.57-8.73,0-3.86,1-6.89,3-9.11,2-2.21,5.23-3.82,9.7-4.82,4.46-1,10.41-1.5,17.84-1.5h5.68v8.36h-5.57c-3.71,0-6.66.2-8.84.59-2.18.39-3.77,1.07-4.77,2.04-1,.96-1.5,2.23-1.5,3.8,0,1.93.7,3.54,2.09,4.82,1.39,1.29,3.37,1.93,5.95,1.93,2.07,0,3.93-.46,5.57-1.39,1.64-.93,2.93-2.21,3.86-3.86.93-1.64,1.39-3.61,1.39-5.89v-12.21c0-3.14-.71-5.37-2.14-6.7-1.43-1.32-3.89-1.98-7.39-1.98-1.86,0-3.91.21-6.16.64-2.25.43-4.73,1.22-7.45,2.36-1.64.64-3.05.79-4.23.43-1.18-.36-2.09-1.05-2.73-2.09-.64-1.03-.96-2.2-.96-3.48s.36-2.5,1.07-3.64c.71-1.14,1.93-2,3.64-2.57,3.28-1.29,6.41-2.2,9.38-2.73,2.96-.54,5.66-.8,8.09-.8,5.5,0,10.05.8,13.66,2.41,3.61,1.61,6.28,4.09,8.03,7.45,1.75,3.36,2.63,7.61,2.63,12.75v23.78c0,2.64-.66,4.66-1.98,6.05-1.32,1.39-3.16,2.09-5.52,2.09s-4.3-.7-5.62-2.09c-1.32-1.39-1.98-3.41-1.98-6.05v-3.96l.75.75c-.43,2.36-1.34,4.39-2.73,6.11-1.39,1.71-3.14,3.05-5.25,4.02-2.11.96-4.55,1.45-7.34,1.45Z"/>
    <path class="cls-3" d="M377.36,582.48c-4.57,0-8.59-1.09-12.05-3.27-3.46-2.18-6.16-5.34-8.09-9.48-1.93-4.14-2.89-9.03-2.89-14.68s.96-10.5,2.89-14.57c1.93-4.07,4.62-7.21,8.09-9.43,3.46-2.21,7.48-3.32,12.05-3.32,4.14,0,7.82,1,11.04,3,3.21,2,5.36,4.61,6.43,7.82h-1.18v-25.39c0-2.71.68-4.75,2.04-6.11,1.35-1.36,3.36-2.04,6-2.04s4.57.68,6,2.04c1.43,1.36,2.14,3.39,2.14,6.11v60.96c0,2.64-.7,4.66-2.09,6.05-1.39,1.39-3.34,2.09-5.84,2.09-2.64,0-4.66-.7-6.05-2.09-1.39-1.39-2.09-3.41-2.09-6.05v-7.29l1.18,4.18c-1,3.5-3.12,6.29-6.37,8.36-3.25,2.07-6.98,3.11-11.2,3.11ZM382.18,570.48c2.36,0,4.39-.55,6.11-1.66,1.71-1.11,3.07-2.8,4.07-5.09,1-2.29,1.5-5.18,1.5-8.68,0-5.21-1.07-9.05-3.21-11.52-2.14-2.46-4.96-3.7-8.46-3.7-2.29,0-4.3.54-6.05,1.61-1.75,1.07-3.11,2.75-4.07,5.03-.96,2.29-1.45,5.14-1.45,8.57,0,5.29,1.07,9.18,3.21,11.68,2.14,2.5,4.93,3.75,8.36,3.75Z"/>
    <path class="cls-7" d="M426.53,582.27c-2.5,0-4.46-.7-5.89-2.09-1.43-1.39-2.14-3.41-2.14-6.05v-60.96c0-2.71.71-4.75,2.14-6.11,1.43-1.36,3.39-2.04,5.89-2.04,2.64,0,4.66.68,6.05,2.04,1.39,1.36,2.09,3.39,2.09,6.11v37.49h.21l15.53-17.25c1.57-1.86,3-3.23,4.28-4.12,1.29-.89,3.07-1.34,5.36-1.34s4,.57,5.14,1.71c1.14,1.14,1.73,2.52,1.77,4.12.04,1.61-.66,3.27-2.09,4.98l-16.39,18.11v-6.11l18.21,21c1.36,1.71,1.95,3.39,1.77,5.04s-.93,2.96-2.25,3.96c-1.32,1-2.95,1.5-4.87,1.5-2.43,0-4.38-.45-5.84-1.34-1.46-.89-2.95-2.27-4.45-4.12l-16.18-18.11h-.21v15.43c0,5.43-2.72,8.14-8.14,8.14Z"/>
    <path class="cls-8" d="M492.41,582.48c-4,0-7.5-.73-10.5-2.2-3-1.46-5.36-3.46-7.07-6-1.71-2.53-2.57-5.45-2.57-8.73,0-3.86,1-6.89,3-9.11,2-2.21,5.23-3.82,9.7-4.82,4.46-1,10.41-1.5,17.84-1.5h5.68v8.36h-5.57c-3.71,0-6.66.2-8.84.59-2.18.39-3.77,1.07-4.77,2.04-1,.96-1.5,2.23-1.5,3.8,0,1.93.7,3.54,2.09,4.82,1.39,1.29,3.37,1.93,5.95,1.93,2.07,0,3.93-.46,5.57-1.39,1.64-.93,2.93-2.21,3.86-3.86.93-1.64,1.39-3.61,1.39-5.89v-12.21c0-3.14-.71-5.37-2.14-6.7-1.43-1.32-3.89-1.98-7.39-1.98-1.86,0-3.91.21-6.16.64-2.25.43-4.73,1.22-7.45,2.36-1.64.64-3.05.79-4.23.43-1.18-.36-2.09-1.05-2.73-2.09-.64-1.03-.96-2.2-.96-3.48s.36-2.5,1.07-3.64c.71-1.14,1.93-2,3.64-2.57,3.28-1.29,6.41-2.2,9.38-2.73,2.96-.54,5.66-.8,8.09-.8,5.5,0,10.05.8,13.66,2.41,3.61,1.61,6.28,4.09,8.03,7.45,1.75,3.36,2.63,7.61,2.63,12.75v23.78c0,2.64-.66,4.66-1.98,6.05-1.32,1.39-3.16,2.09-5.52,2.09s-4.3-.7-5.62-2.09c-1.32-1.39-1.98-3.41-1.98-6.05v-3.96l.75.75c-.43,2.36-1.34,4.39-2.73,6.11-1.39,1.71-3.14,3.05-5.25,4.02-2.11.96-4.55,1.45-7.34,1.45Z"/>
    <path class="cls-5" d="M139.96,674.25c-2.07,0-3.8-.45-5.2-1.34-1.39-.89-2.32-2.11-2.78-3.64-.47-1.53-.45-3.21.05-5.03.5-1.82,1.46-3.7,2.89-5.63l39.1-51.1v5.03h-35.35c-2.36,0-4.16-.61-5.41-1.82-1.25-1.21-1.88-2.93-1.88-5.14s.62-3.91,1.88-5.09c1.25-1.18,3.05-1.77,5.41-1.77h43.17c2.07,0,3.79.45,5.14,1.34,1.36.89,2.29,2.09,2.79,3.59.5,1.5.5,3.18,0,5.03-.5,1.86-1.46,3.75-2.89,5.68l-39.1,50.99v-4.93h36.96c2.36,0,4.14.59,5.36,1.77,1.21,1.18,1.82,2.91,1.82,5.2s-.61,3.91-1.82,5.09c-1.22,1.18-3,1.77-5.36,1.77h-44.78Z"/>
    <path class="cls-6" d="M223.09,675.32c-6.21,0-11.55-1.11-16.02-3.32-4.46-2.21-7.89-5.37-10.28-9.48-2.39-4.11-3.59-8.98-3.59-14.62s1.16-10.16,3.48-14.19c2.32-4.03,5.52-7.23,9.59-9.59s8.68-3.53,13.82-3.53c3.93,0,7.41.63,10.44,1.87,3.04,1.25,5.66,3.04,7.88,5.36,2.21,2.32,3.89,5.14,5.03,8.46,1.14,3.32,1.71,7.02,1.71,11.09,0,1.36-.43,2.38-1.28,3.05-.86.68-2.11,1.02-3.75,1.02h-33.53v-8.36h26.89l-1.71,1.5c0-2.93-.43-5.37-1.29-7.34-.86-1.96-2.09-3.46-3.7-4.5-1.61-1.03-3.59-1.55-5.95-1.55-2.64,0-4.89.61-6.75,1.82-1.86,1.22-3.29,2.98-4.29,5.3-1,2.32-1.5,5.09-1.5,8.3v.86c0,5.43,1.25,9.43,3.75,12,2.5,2.57,6.28,3.86,11.36,3.86,1.71,0,3.66-.22,5.84-.64,2.18-.43,4.27-1.11,6.27-2.04,1.71-.78,3.18-1.03,4.39-.75,1.21.29,2.2.88,2.95,1.77.75.89,1.16,1.95,1.23,3.16.07,1.21-.2,2.41-.8,3.59-.61,1.18-1.62,2.16-3.05,2.95-2.5,1.43-5.29,2.45-8.36,3.05-3.07.61-6,.91-8.78.91Z"/>
    <path class="cls-1" d="M259.09,675.11c-2.5,0-4.46-.7-5.89-2.09-1.43-1.39-2.14-3.41-2.14-6.05v-38.03c0-2.64.7-4.66,2.09-6.05,1.39-1.39,3.37-2.09,5.95-2.09s4.43.7,5.79,2.09c1.36,1.39,2.04,3.41,2.04,6.05v6.75l-1.18-4.07c1.43-3.36,3.64-6.03,6.64-8.03,3-2,6.53-3,10.6-3s7.46.96,10.18,2.89c2.71,1.93,4.64,4.86,5.79,8.78h-1.5c1.57-3.57,4-6.41,7.28-8.52,3.28-2.11,7-3.16,11.14-3.16s7.32.79,9.96,2.36c2.64,1.57,4.61,4.02,5.89,7.34,1.29,3.32,1.93,7.48,1.93,12.48v24.21c0,2.64-.7,4.66-2.09,6.05-1.39,1.39-3.41,2.09-6.05,2.09-2.5,0-4.46-.7-5.89-2.09-1.43-1.39-2.14-3.41-2.14-6.05v-23.68c0-3.57-.54-6.16-1.61-7.77s-3-2.41-5.79-2.41c-3,0-5.36,1.07-7.07,3.21-1.71,2.14-2.57,5.18-2.57,9.11v21.53c0,2.64-.7,4.66-2.09,6.05-1.39,1.39-3.37,2.09-5.95,2.09s-4.57-.7-6-2.09c-1.43-1.39-2.14-3.41-2.14-6.05v-23.68c0-3.57-.57-6.16-1.71-7.77-1.14-1.61-3-2.41-5.57-2.41-3.07,0-5.46,1.07-7.18,3.21-1.71,2.14-2.57,5.18-2.57,9.11v21.53c0,5.43-2.72,8.14-8.14,8.14Z"/>
    <path class="cls-13" d="M360.22,675.32c-4,0-7.5-.73-10.5-2.2-3-1.46-5.36-3.46-7.07-6-1.71-2.53-2.57-5.45-2.57-8.73,0-3.86,1-6.89,3-9.11,2-2.21,5.23-3.82,9.7-4.82,4.46-1,10.41-1.5,17.84-1.5h5.68v8.36h-5.57c-3.71,0-6.66.2-8.84.59-2.18.39-3.77,1.07-4.77,2.04-1,.96-1.5,2.23-1.5,3.8,0,1.93.7,3.54,2.09,4.82,1.39,1.29,3.37,1.93,5.95,1.93,2.07,0,3.93-.46,5.57-1.39,1.64-.93,2.93-2.21,3.86-3.86.93-1.64,1.39-3.61,1.39-5.89v-12.21c0-3.14-.71-5.37-2.14-6.7-1.43-1.32-3.89-1.98-7.39-1.98-1.86,0-3.91.21-6.16.64-2.25.43-4.73,1.22-7.45,2.36-1.64.64-3.05.79-4.23.43-1.18-.36-2.09-1.05-2.73-2.09-.64-1.03-.96-2.2-.96-3.48s.36-2.5,1.07-3.64c.71-1.14,1.93-2,3.64-2.57,3.28-1.29,6.41-2.2,9.38-2.73,2.96-.54,5.66-.8,8.09-.8,5.5,0,10.05.8,13.66,2.41,3.61,1.61,6.28,4.09,8.03,7.45,1.75,3.36,2.63,7.61,2.63,12.75v23.78c0,2.64-.66,4.66-1.98,6.05-1.32,1.39-3.16,2.09-5.52,2.09s-4.3-.7-5.62-2.09c-1.32-1.39-1.98-3.41-1.98-6.05v-3.96l.75.75c-.43,2.36-1.34,4.39-2.73,6.11-1.39,1.71-3.14,3.05-5.25,4.02-2.11.96-4.55,1.45-7.34,1.45Z"/>
    <path class="cls-14" d="M406.28,675.11c-2.5,0-4.46-.7-5.89-2.09-1.43-1.39-2.14-3.41-2.14-6.05v-38.03c0-2.64.7-4.66,2.09-6.05s3.37-2.09,5.95-2.09,4.43.7,5.79,2.09c1.35,1.39,2.04,3.41,2.04,6.05v6.11l-1.18-3.43c1.57-3.57,4-6.3,7.28-8.2,3.28-1.89,6.96-2.84,11.04-2.84,4.29,0,7.77.8,10.44,2.41,2.68,1.61,4.7,4.05,6.05,7.34,1.35,3.28,2.04,7.43,2.04,12.43v24.21c0,2.64-.68,4.66-2.04,6.05-1.36,1.39-3.36,2.09-6,2.09-2.5,0-4.48-.7-5.95-2.09-1.46-1.39-2.2-3.41-2.2-6.05v-23.57c0-3.64-.66-6.27-1.98-7.87-1.32-1.61-3.3-2.41-5.95-2.41-3.43,0-6.16,1.07-8.2,3.21-2.04,2.14-3.05,5-3.05,8.57v22.07c0,5.43-2.72,8.14-8.14,8.14Z"/>
    <path class="cls-11" d="M483.52,675.32c-5.64,0-10.53-1.11-14.68-3.32-4.14-2.21-7.38-5.37-9.69-9.48-2.32-4.11-3.48-8.98-3.48-14.62,0-4.21.64-8,1.93-11.36,1.29-3.36,3.16-6.23,5.63-8.62,2.46-2.39,5.43-4.21,8.89-5.46,3.46-1.25,7.27-1.87,11.41-1.87,5.64,0,10.55,1.11,14.73,3.32,4.18,2.22,7.43,5.37,9.75,9.48,2.32,4.11,3.48,8.95,3.48,14.52,0,4.22-.66,8.04-1.98,11.46-1.32,3.43-3.2,6.32-5.62,8.68-2.43,2.36-5.36,4.16-8.78,5.41-3.43,1.25-7.29,1.88-11.57,1.88ZM483.52,663.33c2.36,0,4.39-.55,6.11-1.66,1.71-1.11,3.07-2.8,4.07-5.09,1-2.29,1.5-5.18,1.5-8.68,0-5.21-1.07-9.05-3.21-11.52-2.14-2.46-4.96-3.7-8.46-3.7-2.29,0-4.3.54-6.05,1.61-1.75,1.07-3.11,2.75-4.07,5.03-.96,2.29-1.45,5.14-1.45,8.57,0,5.29,1.07,9.18,3.21,11.68,2.14,2.5,4.93,3.75,8.36,3.75Z"/>
    <path class="cls-10" d="M539.98,675.11c-2.14,0-3.98-.54-5.52-1.61-1.54-1.07-2.84-2.71-3.91-4.93l-16.07-37.28c-.79-1.86-1.05-3.59-.8-5.19.25-1.61,1.02-2.89,2.3-3.86,1.29-.96,3.11-1.45,5.46-1.45,2,0,3.59.43,4.77,1.29,1.18.86,2.23,2.61,3.16,5.25l12.75,32.03h-3.43l13.07-32.25c1-2.43,2.11-4.09,3.32-4.98,1.21-.89,2.89-1.34,5.03-1.34,1.86,0,3.34.48,4.45,1.45s1.79,2.23,2.04,3.8c.25,1.57-.02,3.29-.8,5.14l-16.5,37.5c-.93,2.14-2.18,3.75-3.75,4.82-1.57,1.07-3.43,1.61-5.57,1.61Z"/>
    <path class="cls-12" d="M588.93,675.32c-4,0-7.5-.73-10.5-2.2-3-1.46-5.36-3.46-7.07-6-1.71-2.53-2.57-5.45-2.57-8.73,0-3.86,1-6.89,3-9.11,2-2.21,5.23-3.82,9.7-4.82,4.46-1,10.41-1.5,17.84-1.5h5.68v8.36h-5.57c-3.71,0-6.66.2-8.84.59-2.18.39-3.77,1.07-4.77,2.04-1,.96-1.5,2.23-1.5,3.8,0,1.93.7,3.54,2.09,4.82,1.39,1.29,3.37,1.93,5.95,1.93,2.07,0,3.93-.46,5.57-1.39,1.64-.93,2.93-2.21,3.86-3.86.93-1.64,1.39-3.61,1.39-5.89v-12.21c0-3.14-.71-5.37-2.14-6.7-1.43-1.32-3.89-1.98-7.39-1.98-1.86,0-3.91.21-6.16.64-2.25.43-4.73,1.22-7.45,2.36-1.64.64-3.05.79-4.23.43-1.18-.36-2.09-1.05-2.73-2.09-.64-1.03-.96-2.2-.96-3.48s.36-2.5,1.07-3.64c.71-1.14,1.93-2,3.64-2.57,3.28-1.29,6.41-2.2,9.38-2.73,2.96-.54,5.66-.8,8.09-.8,5.5,0,10.05.8,13.66,2.41,3.61,1.61,6.28,4.09,8.03,7.45,1.75,3.36,2.63,7.61,2.63,12.75v23.78c0,2.64-.66,4.66-1.98,6.05-1.32,1.39-3.16,2.09-5.52,2.09s-4.3-.7-5.62-2.09c-1.32-1.39-1.98-3.41-1.98-6.05v-3.96l.75.75c-.43,2.36-1.34,4.39-2.73,6.11-1.39,1.71-3.14,3.05-5.25,4.02-2.11.96-4.55,1.45-7.34,1.45ZM601.25,614.05c-.93,1.14-1.98,1.8-3.16,1.98-1.18.18-2.3-.04-3.37-.64-1.07-.61-1.84-1.45-2.3-2.52-.47-1.07-.38-2.32.27-3.75l7.61-15.1c.71-1.5,1.71-2.47,3-2.89,1.29-.43,2.57-.48,3.86-.16,1.29.32,2.41.95,3.37,1.88.96.93,1.55,2.04,1.77,3.32.21,1.28-.14,2.61-1.07,3.96l-9.96,13.93Z"/>
  </g>
</svg>